<?xml version="1.0" encoding="UTF-8"?>
<!-- Generator: visioncortex VTracer 0.6.3 -->
<svg version="1.1" xmlns="http://www.w3.org/2000/svg" width="1280" height="1280">
<path d="M0 0 C0.89 0.02 1.78 0.05 2.69 0.07 C29.12 0.79 29.12 0.79 34.81 2.69 C37.55 2.92 40.26 3.1 43 3.25 C43.75 3.29 44.5 3.34 45.27 3.38 C47.12 3.49 48.97 3.59 50.81 3.69 C50.81 4.35 50.81 5.01 50.81 5.69 C52.52 5.62 52.52 5.62 54.26 5.55 C58.99 5.56 63.16 6.58 67.69 7.88 C68.91 8.21 68.91 8.21 70.16 8.55 C71.86 9.02 73.56 9.5 75.26 9.97 C77.75 10.67 80.24 11.35 82.73 12.03 C92.96 14.81 102.9 17.95 112.81 21.69 C113.87 22.08 113.87 22.08 114.95 22.49 C123.63 25.75 132.12 29.1 140.33 33.43 C142.78 34.67 145.25 35.71 147.81 36.69 C147.81 37.35 147.81 38.01 147.81 38.69 C148.58 38.83 149.34 38.98 150.12 39.12 C152.81 39.69 152.81 39.69 155.81 40.69 C155.81 41.35 155.81 42.01 155.81 42.69 C156.6 42.89 157.38 43.1 158.19 43.31 C163.12 45.18 167.35 47.9 171.81 50.69 C172.99 51.4 172.99 51.4 174.2 52.12 C175.28 52.77 175.28 52.77 176.38 53.44 C177.02 53.82 177.66 54.21 178.32 54.61 C179.81 55.69 179.81 55.69 180.81 57.69 C182.48 58.36 184.14 59.03 185.81 59.69 C187.59 60.81 189.34 61.97 191.06 63.19 C191.93 63.8 192.81 64.4 193.7 65.03 C195.81 66.69 195.81 66.69 196.81 68.69 C197.51 69.08 198.22 69.47 198.94 69.88 C201.48 71.48 202.99 72.84 205 75 C207.72 77.83 210.38 79.72 213.81 81.62 C218.14 84.08 221.05 86.78 224.14 90.66 C226.72 93.78 229.64 96.54 232.53 99.36 C234.39 101.2 236.26 103.04 238.12 104.88 C238.77 105.5 239.42 106.13 240.08 106.78 C240.69 107.38 241.3 107.98 241.93 108.61 C242.48 109.15 243.04 109.69 243.61 110.25 C244.81 111.69 244.81 111.69 244.81 113.69 C245.47 113.69 246.13 113.69 246.81 113.69 C247.47 115.67 248.13 117.65 248.81 119.69 C249.47 119.69 250.13 119.69 250.81 119.69 C252.43 121.33 252.43 121.33 254.25 123.5 C256.75 126.49 256.75 126.49 259.54 129.2 C260.81 130.69 260.81 130.69 260.81 134.69 C261.39 134.89 261.97 135.1 262.56 135.31 C265.66 137.2 267 139.59 268.81 142.69 C268.81 143.35 268.81 144.01 268.81 144.69 C269.47 144.69 270.13 144.69 270.81 144.69 C272.81 147.69 272.81 147.69 272.81 151.69 C273.39 151.87 273.97 152.06 274.56 152.25 C277.78 154.31 279.41 157.16 280.81 160.69 C280.81 162.01 280.81 163.33 280.81 164.69 C281.41 164.89 282.01 165.1 282.62 165.31 C285.69 167.24 286.49 169.38 287.81 172.69 C287.81 174.01 287.81 175.33 287.81 176.69 C288.8 177.02 289.79 177.35 290.81 177.69 C290.81 179.01 290.81 180.33 290.81 181.69 C291.47 181.69 292.13 181.69 292.81 181.69 C292.81 183.34 292.81 184.99 292.81 186.69 C293.8 187.02 294.79 187.35 295.81 187.69 C295.81 189.01 295.81 190.33 295.81 191.69 C296.47 191.69 297.13 191.69 297.81 191.69 C298.08 192.39 298.35 193.09 298.62 193.81 C299.77 196.74 299.77 196.74 301.38 199.56 C302.95 202.98 303.44 205.96 303.81 209.69 C304.47 209.69 305.13 209.69 305.81 209.69 C307.4 213.86 308.03 217.22 307.81 221.69 C308.8 222.02 309.79 222.35 310.81 222.69 C311.54 225 312.2 227.34 312.81 229.69 C313.47 230.68 314.13 231.67 314.81 232.69 C315.18 235.23 315.32 237.75 315.47 240.31 C315.68 242.95 315.68 242.95 317.81 245.69 C318.16 247.66 318.16 247.66 318.31 249.75 C318.4 253.69 318.4 253.69 320.81 255.69 C321.19 257.82 321.19 257.82 321.38 260.25 C321.4 263.27 321.4 263.27 322.81 265.69 C322.88 267.54 322.9 269.4 322.88 271.25 C322.87 272.26 322.86 273.27 322.85 274.32 C322.83 275.49 322.83 275.49 322.81 276.69 C323.47 276.69 324.13 276.69 324.81 276.69 C326.32 281.21 326.26 285.8 326.53 290.54 C326.61 293.59 326.61 293.59 327.81 295.69 C327.9 298.39 327.93 301.06 327.91 303.76 C327.91 304.55 327.91 305.35 327.91 306.17 C327.9 308.72 327.89 311.27 327.88 313.81 C327.87 315.54 327.87 317.26 327.86 318.99 C327.85 323.22 327.83 327.45 327.81 331.69 C328.47 331.69 329.13 331.69 329.81 331.69 C329.85 334.02 329.85 336.35 329.81 338.69 C329.48 339.02 329.15 339.35 328.81 339.69 C328.66 342.4 328.58 345.09 328.53 347.81 C328.51 348.62 328.49 349.44 328.48 350.28 C328.42 352.89 328.36 355.51 328.31 358.12 C328.24 361.56 328.17 365 328.09 368.43 C328.07 369.63 328.07 369.63 328.05 370.85 C327.93 376.46 327.93 376.46 326.81 378.69 C326.53 382.29 326.37 385.89 326.19 389.5 C325.81 392.69 325.81 392.69 323.81 394.69 C323.46 397.18 323.46 397.18 323.38 400.06 C322.3 416.2 322.3 416.2 318.81 419.69 C318.58 421.69 318.35 423.69 318.13 425.7 C317.76 427.99 316.93 429.66 315.81 431.69 C315.44 433.34 315.09 435.01 314.81 436.69 C314.15 436.69 313.49 436.69 312.81 436.69 C312.81 439 312.81 441.31 312.81 443.69 C312.15 443.69 311.49 443.69 310.81 443.69 C310.83 444.64 310.85 445.59 310.88 446.56 C310.81 449.69 310.81 449.69 309.81 451.69 C309.15 451.69 308.49 451.69 307.81 451.69 C307.91 452.99 307.91 452.99 308 454.31 C307.78 458.22 306.66 460.26 304.81 463.69 C304 465.71 303.25 467.74 302.51 469.79 C301.66 472.11 300.74 474.4 299.81 476.69 C299.15 476.69 298.49 476.69 297.81 476.69 C297.69 477.41 297.57 478.13 297.44 478.88 C296.82 481.64 295.93 484.08 294.81 486.69 C294.15 486.69 293.49 486.69 292.81 486.69 C292.69 487.41 292.57 488.13 292.44 488.88 C291.82 491.64 290.93 494.08 289.81 496.69 C289.15 496.69 288.49 496.69 287.81 496.69 C287.71 497.45 287.61 498.21 287.5 499 C286.74 501.95 285.94 502.65 283.81 504.69 C283.1 506.79 283.1 506.79 282.81 508.69 C282.15 508.69 281.49 508.69 280.81 508.69 C280.71 509.45 280.61 510.21 280.5 511 C279.73 514.01 278.98 514.6 276.81 516.69 C276.07 518.23 276.07 518.23 275.31 519.81 C273.81 522.69 273.81 522.69 270.81 523.69 C270.66 524.83 270.66 524.83 270.5 526 C269.73 529.01 268.98 529.6 266.81 531.69 C266.1 533.14 266.1 533.14 265.38 534.62 C263.83 537.65 262.4 539.52 259.81 541.69 C259.15 541.69 258.49 541.69 257.81 541.69 C257.75 542.41 257.68 543.13 257.62 543.88 C256.56 547.57 254.75 549.04 251.94 551.62 C248.19 555.07 245.87 558.02 243.81 562.69 C243.15 562.69 242.49 562.69 241.81 562.69 C241.81 563.35 241.81 564.01 241.81 564.69 C241.15 564.69 240.49 564.69 239.81 564.69 C239.48 565.68 239.15 566.67 238.81 567.69 C238.15 567.69 237.49 567.69 236.81 567.69 C236.81 568.35 236.81 569.01 236.81 569.69 C236.15 569.69 235.49 569.69 234.81 569.69 C234.61 570.22 234.4 570.76 234.19 571.31 C232.28 574.61 229.76 577.28 226.81 579.69 C226.15 579.69 225.49 579.69 224.81 579.69 C224.48 580.68 224.15 581.67 223.81 582.69 C223.15 582.69 222.49 582.69 221.81 582.69 C221.81 583.35 221.81 584.01 221.81 584.69 C221.15 584.69 220.49 584.69 219.81 584.69 C219.81 585.35 219.81 586.01 219.81 586.69 C218.34 587.7 218.34 587.7 216.31 588.81 C212.11 591.3 209.04 594.32 205.77 597.92 C203.57 599.91 201.55 600.62 198.81 601.69 C198.01 602.66 197.2 603.63 196.38 604.62 C193.67 607.86 191.59 608.96 187.81 610.69 C187.01 611.52 187.01 611.52 186.19 612.38 C184.81 613.69 184.81 613.69 180.81 613.69 C180.59 614.33 180.36 614.97 180.12 615.62 C178.81 617.69 178.81 617.69 176.19 618.44 C175.4 618.52 174.62 618.6 173.81 618.69 C173.48 619.68 173.15 620.67 172.81 621.69 C169.81 623.69 169.81 623.69 165.81 623.69 C165.81 624.35 165.81 625.01 165.81 625.69 C164.92 625.84 164.92 625.84 164 626 C161.75 626.52 161.75 626.52 160.38 628.19 C158.33 630.15 156.58 630.31 153.81 630.69 C153.81 631.35 153.81 632.01 153.81 632.69 C150.08 634.72 148.14 635.69 143.81 635.69 C143.81 636.35 143.81 637.01 143.81 637.69 C140.08 639.72 138.14 640.69 133.81 640.69 C133.81 641.35 133.81 642.01 133.81 642.69 C128.06 643.69 128.06 643.69 125.81 643.69 C125.81 644.35 125.81 645.01 125.81 645.69 C121.88 647.37 118.13 648.69 113.81 648.69 C113.81 649.35 113.81 650.01 113.81 650.69 C112.16 650.69 110.51 650.69 108.81 650.69 C108.81 651.35 108.81 652.01 108.81 652.69 C103.71 654.59 99.35 656.11 93.81 655.69 C93.81 656.35 93.81 657.01 93.81 657.69 C90.43 658.73 87.33 658.77 83.81 658.69 C83.81 659.35 83.81 660.01 83.81 660.69 C82.27 660.87 82.27 660.87 80.69 661.06 C76.91 661.55 76.91 661.55 73.81 662.75 C70.36 663.83 67.41 663.83 63.81 663.69 C63.81 664.35 63.81 665.01 63.81 665.69 C62.99 665.74 62.17 665.79 61.33 665.84 C60.25 665.91 59.17 665.99 58.06 666.06 C56.46 666.17 56.46 666.17 54.83 666.27 C51.89 666.5 51.89 666.5 49.83 667.73 C46.93 669.11 44.44 668.8 41.25 668.69 C36.2 668.41 36.2 668.41 31.81 670.69 C29.35 670.88 27 670.96 24.54 670.95 C23.81 670.95 23.07 670.95 22.31 670.96 C19.87 670.97 17.44 670.96 15 670.95 C13.31 670.95 11.62 670.96 9.92 670.96 C6.38 670.96 2.83 670.96 -0.72 670.95 C-5.27 670.94 -9.82 670.94 -14.37 670.96 C-17.86 670.96 -21.36 670.96 -24.85 670.96 C-26.53 670.95 -28.21 670.96 -29.89 670.96 C-32.23 670.97 -34.57 670.96 -36.92 670.95 C-37.96 670.95 -37.96 670.95 -39.02 670.96 C-42.65 670.93 -44.08 670.76 -47.19 668.69 C-49.52 668.6 -51.86 668.61 -54.19 668.69 C-60.85 668.91 -60.85 668.91 -64.19 666.69 C-66.79 666.3 -66.79 666.3 -69.62 666.19 C-73.43 665.98 -75.83 665.42 -79.19 663.69 C-81.51 663.28 -81.51 663.28 -83.88 663.12 C-88.09 662.79 -88.09 662.79 -89.19 661.69 C-91.52 661.32 -93.85 660.99 -96.19 660.69 C-96.19 660.03 -96.19 659.37 -96.19 658.69 C-98.11 658.72 -98.11 658.72 -100.06 658.75 C-103.94 658.81 -103.94 658.81 -106.19 657.69 C-106.19 657.03 -106.19 656.37 -106.19 655.69 C-107.52 655.75 -107.52 655.75 -108.88 655.81 C-112.21 655.69 -114.18 655.03 -117.19 653.69 C-118.51 653.33 -119.85 652.99 -121.19 652.69 C-121.19 652.03 -121.19 651.37 -121.19 650.69 C-122.84 650.69 -124.49 650.69 -126.19 650.69 C-126.19 650.03 -126.19 649.37 -126.19 648.69 C-127.61 648.75 -127.61 648.75 -129.06 648.81 C-132.19 648.69 -132.19 648.69 -134.19 646.69 C-136.26 646.04 -136.26 646.04 -138.19 645.69 C-138.19 645.03 -138.19 644.37 -138.19 643.69 C-139.61 643.72 -139.61 643.72 -141.06 643.75 C-144.19 643.69 -144.19 643.69 -146.19 642.69 C-146.19 642.03 -146.19 641.37 -146.19 640.69 C-146.91 640.56 -147.63 640.44 -148.38 640.31 C-151.14 639.7 -153.58 638.8 -156.19 637.69 C-156.19 637.03 -156.19 636.37 -156.19 635.69 C-156.91 635.56 -157.63 635.44 -158.38 635.31 C-161.14 634.7 -163.58 633.8 -166.19 632.69 C-166.19 632.03 -166.19 631.37 -166.19 630.69 C-166.93 630.58 -167.67 630.48 -168.44 630.38 C-171.39 629.64 -172.84 628.57 -175.19 626.69 C-176.18 626.36 -177.17 626.03 -178.19 625.69 C-178.19 625.03 -178.19 624.37 -178.19 623.69 C-178.95 623.58 -179.71 623.48 -180.5 623.38 C-183.48 622.61 -184.12 621.84 -186.19 619.69 C-188.79 618.5 -188.79 618.5 -191.19 617.69 C-191.19 617.03 -191.19 616.37 -191.19 615.69 C-191.85 615.69 -192.51 615.69 -193.19 615.69 C-193.85 615.03 -194.51 614.37 -195.19 613.69 C-196.03 613.38 -196.88 613.07 -197.75 612.75 C-198.55 612.4 -199.36 612.05 -200.19 611.69 C-200.52 610.7 -200.85 609.71 -201.19 608.69 C-201.91 608.63 -202.63 608.56 -203.38 608.5 C-207.07 607.43 -208.72 605.58 -211.19 602.69 C-211.19 602.03 -211.19 601.37 -211.19 600.69 C-212.27 600.59 -212.27 600.59 -213.38 600.49 C-217.07 599.43 -218.54 597.63 -221.12 594.81 C-224.57 591.07 -227.52 588.74 -232.19 586.69 C-232.19 586.03 -232.19 585.37 -232.19 584.69 C-232.85 584.69 -233.51 584.69 -234.19 584.69 C-234.19 584.03 -234.19 583.37 -234.19 582.69 C-235.18 582.36 -236.17 582.03 -237.19 581.69 C-237.19 581.03 -237.19 580.37 -237.19 579.69 C-237.85 579.69 -238.51 579.69 -239.19 579.69 C-239.19 579.03 -239.19 578.37 -239.19 577.69 C-239.76 577.44 -240.34 577.19 -240.94 576.94 C-243.52 575.5 -245.25 573.9 -247.19 571.69 C-247.19 571.03 -247.19 570.37 -247.19 569.69 C-247.85 569.69 -248.51 569.69 -249.19 569.69 C-249.19 569.03 -249.19 568.37 -249.19 567.69 C-250.18 567.36 -251.17 567.03 -252.19 566.69 C-252.19 566.03 -252.19 565.37 -252.19 564.69 C-252.85 564.69 -253.51 564.69 -254.19 564.69 C-254.19 564.03 -254.19 563.37 -254.19 562.69 C-254.85 562.69 -255.51 562.69 -256.19 562.69 C-257.2 561.22 -257.2 561.22 -258.31 559.19 C-260.79 555.04 -263.76 552.01 -267.21 548.68 C-270.26 545.61 -272.69 542.2 -275.19 538.69 C-275.86 537.77 -276.54 536.86 -277.23 535.91 C-280.41 531.59 -283.43 527.3 -286.19 522.69 C-287.3 521.1 -288.43 519.51 -289.56 517.94 C-292.37 513.97 -294.83 509.94 -297.12 505.66 C-298.02 503.99 -299 502.37 -300 500.75 C-301.19 498.69 -301.19 498.69 -301.19 496.69 C-301.85 496.36 -302.51 496.03 -303.19 495.69 C-303.85 493.35 -304.52 491.02 -305.19 488.69 C-305.85 488.36 -306.51 488.03 -307.19 487.69 C-308.22 485.37 -309.22 483.03 -310.19 480.69 C-310.85 479.7 -311.51 478.71 -312.19 477.69 C-312.19 476.37 -312.19 475.05 -312.19 473.69 C-312.85 473.36 -313.51 473.03 -314.19 472.69 C-314.92 471.05 -315.57 469.37 -316.19 467.69 C-316.54 466.88 -316.89 466.08 -317.25 465.25 C-318.29 462.41 -318.77 459.68 -319.19 456.69 C-319.85 456.69 -320.51 456.69 -321.19 456.69 C-321.31 455.99 -321.43 455.29 -321.56 454.57 C-322.24 451.45 -323.2 448.52 -324.25 445.5 C-326.19 439.91 -326.19 439.91 -326.19 437.69 C-326.85 437.36 -327.51 437.03 -328.19 436.69 C-328.95 434 -329.6 431.35 -330.19 428.62 C-330.52 427.13 -330.85 425.64 -331.19 424.15 C-331.35 423.41 -331.51 422.67 -331.68 421.91 C-332.18 419.7 -332.74 417.51 -333.3 415.32 C-334.05 412.24 -334.38 409.82 -334.19 406.69 C-334.85 406.36 -335.51 406.03 -336.19 405.69 C-336.75 403.05 -336.75 403.05 -337.19 399.56 C-337.35 398.31 -337.51 397.05 -337.68 395.75 C-337.85 394.4 -338.02 393.04 -338.19 391.69 C-338.45 389.62 -338.72 387.55 -338.99 385.49 C-339.24 383.58 -339.48 381.68 -339.72 379.77 C-340.1 376.66 -340.1 376.66 -341.19 373.69 C-341.41 370.89 -341.59 368.1 -341.72 365.3 C-341.77 364.48 -341.81 363.67 -341.85 362.82 C-341.99 360.22 -342.12 357.61 -342.25 355 C-342.34 353.23 -342.43 351.46 -342.53 349.69 C-342.75 345.36 -342.97 341.02 -343.19 336.69 C-343.52 336.69 -343.85 336.69 -344.19 336.69 C-344.19 335.04 -344.19 333.39 -344.19 331.69 C-343.53 331.69 -342.87 331.69 -342.19 331.69 C-342.2 330.39 -342.21 329.1 -342.22 327.77 C-342.37 304.48 -342.37 304.48 -340.69 296.23 C-340.11 293.28 -339.86 290.37 -339.62 287.38 C-339.54 286.31 -339.46 285.24 -339.37 284.14 C-339.31 283.33 -339.25 282.52 -339.19 281.69 C-338.53 281.69 -337.87 281.69 -337.19 281.69 C-337.2 281.02 -337.21 280.36 -337.22 279.68 C-337.31 270.91 -337.31 270.91 -336.19 266.69 C-335.53 266.69 -334.87 266.69 -334.19 266.69 C-334.68 265.2 -334.68 265.2 -335.19 263.69 C-334.91 261.35 -334.58 259.01 -334.19 256.69 C-333.53 256.69 -332.87 256.69 -332.19 256.69 C-332.52 255.7 -332.85 254.71 -333.19 253.69 C-332.7 251.49 -332.7 251.49 -331.88 249 C-330.91 246 -330.04 243.07 -329.31 240 C-328.33 235.93 -327.01 231.97 -325.69 228 C-325.47 227.36 -325.26 226.72 -325.04 226.05 C-324.11 223.29 -323.14 220.56 -322.03 217.86 C-321.07 215.76 -321.07 215.76 -321.19 213.69 C-320.53 213.69 -319.87 213.69 -319.19 213.69 C-319.08 212.97 -318.98 212.24 -318.88 211.5 C-318.19 208.69 -318.19 208.69 -316.75 206.31 C-314.9 203.2 -314.16 200.17 -313.19 196.69 C-312.2 194.68 -311.21 192.68 -310.19 190.69 C-310.02 189.97 -309.86 189.24 -309.69 188.5 C-309.19 186.69 -309.19 186.69 -307.75 185.38 C-305.88 183.62 -305.88 183.62 -305.25 180.25 C-304.1 176.39 -302.94 175.44 -300.19 172.69 C-299.69 170.89 -299.69 170.89 -299.19 169.06 C-298.19 165.69 -298.19 165.69 -296.12 164.56 C-295.17 164.13 -295.17 164.13 -294.19 163.69 C-293.81 162.03 -293.48 160.36 -293.19 158.69 C-290.1 152.15 -290.1 152.15 -287.19 150.69 C-286.73 149.57 -286.28 148.46 -285.81 147.31 C-284.14 143.59 -283.32 142.94 -280.19 140.69 C-279.15 138.71 -278.16 136.7 -277.19 134.69 C-273.57 128.72 -269.84 123.19 -264 119.19 C-262.02 117.82 -262.02 117.82 -261.5 115.55 C-259.59 111.39 -256.58 108.65 -253.35 105.45 C-252.34 104.44 -252.34 104.44 -251.3 103.4 C-249.88 101.97 -248.45 100.54 -247.01 99.12 C-244.82 96.94 -242.64 94.75 -240.46 92.55 C-239.07 91.16 -237.68 89.78 -236.29 88.39 C-235.64 87.73 -234.99 87.08 -234.32 86.4 C-233.39 85.49 -233.39 85.49 -232.46 84.57 C-231.92 84.03 -231.38 83.5 -230.83 82.95 C-228.96 81.51 -227.46 81.2 -225.19 80.69 C-223.38 78.95 -223.38 78.95 -221.75 76.81 C-219.09 73.63 -216.84 71.69 -213.19 69.69 C-212.01 68.68 -210.84 67.66 -209.69 66.62 C-206.95 64.21 -204.58 63.03 -201.19 61.69 C-199.5 60.04 -197.83 58.37 -196.19 56.69 C-193.88 55.17 -191.6 53.89 -189.12 52.69 C-187.09 51.72 -187.09 51.72 -185.19 50.06 C-183.19 48.69 -183.19 48.69 -179.19 48.69 C-178.88 48.05 -178.57 47.41 -178.25 46.75 C-177.19 44.69 -177.19 44.69 -176.19 43.69 C-174.52 43.65 -172.85 43.64 -171.19 43.69 C-171.19 43.03 -171.19 42.37 -171.19 41.69 C-170.55 41.56 -169.91 41.44 -169.25 41.31 C-168.57 41.11 -167.89 40.9 -167.19 40.69 C-166.86 40.03 -166.53 39.37 -166.19 38.69 C-164.54 38.69 -162.89 38.69 -161.19 38.69 C-161.19 38.03 -161.19 37.37 -161.19 36.69 C-158.71 36.19 -158.71 36.19 -156.19 35.69 C-156.19 35.03 -156.19 34.37 -156.19 33.69 C-154.54 33.69 -152.89 33.69 -151.19 33.69 C-151.19 33.03 -151.19 32.37 -151.19 31.69 C-147.87 30.27 -144.75 29.3 -141.19 28.69 C-141.19 28.03 -141.19 27.37 -141.19 26.69 C-138.55 26.36 -135.91 26.03 -133.19 25.69 C-133.19 25.03 -133.19 24.37 -133.19 23.69 C-132.24 23.44 -131.29 23.19 -130.31 22.94 C-124.67 21.33 -119.29 18.98 -113.88 16.73 C-108.51 14.58 -108.51 14.58 -105.19 15.69 C-105.19 15.03 -105.19 14.37 -105.19 13.69 C-104.05 13.58 -102.92 13.48 -101.75 13.38 C-93.89 12.41 -93.89 12.41 -87.19 8.69 C-85.61 8.5 -84.02 8.36 -82.44 8.25 C-78.6 7.91 -75.75 7.15 -72.19 5.69 C-69.82 5.36 -67.46 5.13 -65.08 4.93 C-63.18 4.88 -63.18 4.88 -62.19 3.69 C-59.72 3.48 -57.28 3.31 -54.81 3.19 C-49.42 2.93 -49.42 2.93 -44.19 1.69 C-29.45 -0.48 -14.84 -0.39 0 0 Z M317.81 415.69 C318.81 417.69 318.81 417.69 318.81 417.69 Z M312.81 433.69 C313.81 435.69 313.81 435.69 313.81 435.69 Z M307.81 448.69 C308.81 450.69 308.81 450.69 308.81 450.69 Z M295.81 477.69 C296.81 479.69 296.81 479.69 296.81 479.69 Z M292.81 483.69 C293.81 485.69 293.81 485.69 293.81 485.69 Z M290.81 487.69 C291.81 489.69 291.81 489.69 291.81 489.69 Z M287.81 493.69 C288.81 495.69 288.81 495.69 288.81 495.69 Z M270.81 518.69 C271.14 519.35 271.47 520.01 271.81 520.69 C272.14 520.03 272.47 519.37 272.81 518.69 C272.15 518.69 271.49 518.69 270.81 518.69 Z M260.81 533.69 C261.81 535.69 261.81 535.69 261.81 535.69 Z M262.81 533.69 C263.81 535.69 263.81 535.69 263.81 535.69 Z M257.81 536.69 C258.81 538.69 258.81 538.69 258.81 538.69 Z M250.81 546.69 C249.82 548.17 249.82 548.17 248.81 549.69 C249.8 549.36 250.79 549.03 251.81 548.69 C251.48 548.03 251.15 547.37 250.81 546.69 Z M216.81 582.69 C216.48 583.35 216.15 584.01 215.81 584.69 C216.47 584.69 217.13 584.69 217.81 584.69 C217.48 584.03 217.15 583.37 216.81 582.69 Z M192.81 601.69 C193.81 603.69 193.81 603.69 193.81 603.69 Z M183.81 608.69 C184.14 609.35 184.47 610.01 184.81 610.69 C185.14 610.03 185.47 609.37 185.81 608.69 C185.15 608.69 184.49 608.69 183.81 608.69 Z M179.81 610.69 C179.81 611.68 179.81 612.67 179.81 613.69 C180.47 613.36 181.13 613.03 181.81 612.69 C181.81 612.03 181.81 611.37 181.81 610.69 C181.15 610.69 180.49 610.69 179.81 610.69 Z M175.81 613.69 C176.14 614.35 176.47 615.01 176.81 615.69 C177.14 615.03 177.47 614.37 177.81 613.69 C177.15 613.69 176.49 613.69 175.81 613.69 Z M154.81 626.69 C155.81 628.69 155.81 628.69 155.81 628.69 Z M91.81 653.69 C91.48 654.68 91.15 655.67 90.81 656.69 C91.8 656.36 92.79 656.03 93.81 655.69 C93.15 655.03 92.49 654.37 91.81 653.69 Z " fill="#F8B740" transform="translate(646.1875,303.3125)"/>
<path d="M0 0 C2.73 1.1 4.61 2.25 7 4 C7 4.99 7 5.98 7 7 C7.66 7 8.32 7 9 7 C9.51 8.75 10 10.5 10.5 12.25 C10.78 13.22 11.06 14.2 11.34 15.2 C12 18 12 18 12 22 C11.34 22 10.68 22 10 22 C10.08 23.03 10.17 24.06 10.25 25.12 C9.75 32.86 3.58 37.71 -1.66 42.92 C-2.42 43.69 -3.19 44.46 -3.98 45.25 C-6.5 47.78 -9.04 50.31 -11.57 52.83 C-13.32 54.59 -15.08 56.35 -16.84 58.11 C-20.52 61.8 -24.2 65.47 -27.89 69.15 C-31.68 72.93 -35.46 76.71 -39.24 80.5 C-43.81 85.08 -48.38 89.65 -52.95 94.22 C-54.69 95.96 -56.43 97.7 -58.17 99.45 C-60.6 101.88 -63.04 104.31 -65.47 106.73 C-66.19 107.46 -66.91 108.18 -67.66 108.93 C-68.65 109.91 -68.65 109.91 -69.67 110.92 C-70.24 111.49 -70.82 112.07 -71.41 112.66 C-73 114 -73 114 -76 115 C-76.33 115.66 -76.66 116.32 -77 117 C-78.65 117 -80.3 117 -82 117 C-82 117.66 -82 118.32 -82 119 C-89.5 119.45 -95.78 119.64 -102 115 C-104.31 112.56 -104.31 112.56 -106 110 C-106.52 109.27 -107.05 108.54 -107.59 107.79 C-109.37 104.27 -109.33 101.73 -109.25 97.81 C-109.23 96.58 -109.22 95.35 -109.2 94.08 C-109 91 -109 91 -108 89 C-107.65 88.14 -107.29 87.28 -106.93 86.39 C-104.32 81.81 -100.91 78.49 -97.2 74.79 C-96.4 73.99 -95.61 73.19 -94.79 72.37 C-92.17 69.73 -89.54 67.1 -86.91 64.48 C-85.09 62.65 -83.26 60.82 -81.44 58.99 C-77.62 55.16 -73.79 51.33 -69.96 47.51 C-65.53 43.1 -61.12 38.67 -56.71 34.23 C-52.46 29.96 -48.2 25.7 -43.94 21.45 C-42.13 19.63 -40.32 17.82 -38.52 16 C-36 13.47 -33.47 10.95 -30.93 8.43 C-30.19 7.67 -29.44 6.92 -28.67 6.14 C-27.63 5.12 -27.63 5.12 -26.57 4.07 C-25.98 3.48 -25.38 2.88 -24.76 2.26 C-23 1 -23 1 -19 1 C-18.34 0.34 -17.68 -0.32 -17 -1 C-12.33 -3.33 -5.03 -1.01 0 0 Z M3 32 C4 34 4 34 4 34 Z M5 32 C6 34 6 34 6 34 Z M2 34 C3 36 3 36 3 36 Z " fill="#F4B43F" transform="translate(304,965)"/>
<path d="M0 0 C4.14 3.49 5.79 6.75 6.3 12.16 C6.3 13.26 6.31 14.36 6.31 15.5 C6.33 16.6 6.35 17.71 6.36 18.84 C5.95 22.41 5.05 24.08 3 27 C2.46 27.88 1.92 28.76 1.37 29.66 C-1.45 33.89 -5.05 37.33 -8.64 40.9 C-9.41 41.67 -10.17 42.44 -10.96 43.23 C-13.48 45.76 -16 48.28 -18.53 50.8 C-20.29 52.55 -22.04 54.31 -23.8 56.07 C-27.47 59.75 -31.15 63.42 -34.83 67.1 C-38.62 70.87 -42.39 74.64 -46.17 78.43 C-50.72 83 -55.29 87.56 -59.85 92.12 C-61.59 93.86 -63.33 95.6 -65.07 97.34 C-67.49 99.77 -69.92 102.19 -72.36 104.62 C-73.08 105.34 -73.79 106.06 -74.53 106.8 C-75.2 107.46 -75.86 108.12 -76.55 108.8 C-77.12 109.37 -77.69 109.95 -78.29 110.54 C-82.85 114.43 -87.07 114.37 -92.81 114.38 C-93.59 114.4 -94.38 114.42 -95.18 114.45 C-100.95 114.48 -104.29 113.35 -109 110 C-112.76 105.77 -114.94 99.43 -115.04 93.84 C-114.33 83.83 -109.09 77.5 -102.22 70.7 C-101.05 69.52 -101.05 69.52 -99.86 68.32 C-97.3 65.74 -94.72 63.17 -92.14 60.61 C-90.34 58.81 -88.55 57.01 -86.76 55.21 C-83 51.45 -79.24 47.7 -75.48 43.95 C-71.13 39.63 -66.8 35.3 -62.48 30.95 C-58.31 26.76 -54.12 22.58 -49.94 18.4 C-48.16 16.63 -46.39 14.85 -44.62 13.07 C-42.14 10.59 -39.66 8.12 -37.17 5.65 C-36.44 4.92 -35.71 4.18 -34.97 3.42 C-24.57 -6.8 -11.94 -9.18 0 0 Z M-4 30 C-4.33 30.66 -4.66 31.32 -5 32 C-4.34 32 -3.68 32 -3 32 C-3.33 31.34 -3.66 30.68 -4 30 Z M-80 106 C-80.33 106.66 -80.66 107.32 -81 108 C-80.34 108 -79.68 108 -79 108 C-79.33 107.34 -79.66 106.68 -80 106 Z " fill="#F4B43F" transform="translate(1078,200)"/>
<path d="M0 0 C1.51 0.02 1.51 0.02 3.06 0.04 C4.07 0.04 5.08 0.05 6.12 0.06 C7.3 0.08 7.3 0.08 8.5 0.1 C8.5 0.76 8.5 1.42 8.5 2.1 C9.64 2.31 9.64 2.31 10.81 2.54 C13.5 3.1 13.5 3.1 16.5 4.1 C16.5 4.76 16.5 5.42 16.5 6.1 C17.49 6.43 18.48 6.76 19.5 7.1 C19.5 7.76 19.5 8.42 19.5 9.1 C20.16 9.1 20.82 9.1 21.5 9.1 C21.5 9.76 21.5 10.42 21.5 11.1 C22.49 11.43 23.48 11.76 24.5 12.1 C24.5 12.76 24.5 13.42 24.5 14.1 C25.16 14.1 25.82 14.1 26.5 14.1 C26.5 14.76 26.5 15.42 26.5 16.1 C27.49 16.43 28.48 16.76 29.5 17.1 C29.5 17.76 29.5 18.42 29.5 19.1 C30.16 19.1 30.82 19.1 31.5 19.1 C31.5 19.76 31.5 20.42 31.5 21.1 C32.49 21.43 33.48 21.76 34.5 22.1 C34.5 22.76 34.5 23.42 34.5 24.1 C35.16 24.1 35.82 24.1 36.5 24.1 C36.5 24.76 36.5 25.42 36.5 26.1 C37.49 26.43 38.48 26.76 39.5 27.1 C39.5 27.76 39.5 28.42 39.5 29.1 C40.16 29.1 40.82 29.1 41.5 29.1 C41.5 29.76 41.5 30.42 41.5 31.1 C42.49 31.43 43.48 31.76 44.5 32.1 C44.5 32.76 44.5 33.42 44.5 34.1 C45.16 34.1 45.82 34.1 46.5 34.1 C46.5 34.76 46.5 35.42 46.5 36.1 C47.98 36.59 47.98 36.59 49.5 37.1 C49.5 37.76 49.5 38.42 49.5 39.1 C50.16 39.1 50.82 39.1 51.5 39.1 C51.5 39.76 51.5 40.42 51.5 41.1 C52.98 41.59 52.98 41.59 54.5 42.1 C54.5 42.76 54.5 43.42 54.5 44.1 C55.16 44.1 55.82 44.1 56.5 44.1 C56.5 44.76 56.5 45.42 56.5 46.1 C57.98 46.59 57.98 46.59 59.5 47.1 C59.5 47.76 59.5 48.42 59.5 49.1 C60.16 49.1 60.82 49.1 61.5 49.1 C61.5 49.76 61.5 50.42 61.5 51.1 C62.98 51.59 62.98 51.59 64.5 52.1 C64.5 52.76 64.5 53.42 64.5 54.1 C65.16 54.1 65.82 54.1 66.5 54.1 C66.5 54.76 66.5 55.42 66.5 56.1 C67.98 56.59 67.98 56.59 69.5 57.1 C69.5 57.76 69.5 58.42 69.5 59.1 C70.16 59.1 70.82 59.1 71.5 59.1 C71.5 59.76 71.5 60.42 71.5 61.1 C72.98 61.59 72.98 61.59 74.5 62.1 C74.5 62.76 74.5 63.42 74.5 64.1 C75.16 64.1 75.82 64.1 76.5 64.1 C76.5 64.76 76.5 65.42 76.5 66.1 C77.98 66.59 77.98 66.59 79.5 67.1 C79.5 67.76 79.5 68.42 79.5 69.1 C80.16 69.1 80.82 69.1 81.5 69.1 C81.5 69.76 81.5 70.42 81.5 71.1 C82.98 71.59 82.98 71.59 84.5 72.1 C84.5 72.76 84.5 73.42 84.5 74.1 C85.16 74.1 85.82 74.1 86.5 74.1 C86.5 74.76 86.5 75.42 86.5 76.1 C87.98 76.59 87.98 76.59 89.5 77.1 C89.5 77.76 89.5 78.42 89.5 79.1 C90.16 79.1 90.82 79.1 91.5 79.1 C91.5 79.76 91.5 80.42 91.5 81.1 C92.98 81.59 92.98 81.59 94.5 82.1 C94.5 82.76 94.5 83.42 94.5 84.1 C95.16 84.1 95.82 84.1 96.5 84.1 C96.5 84.76 96.5 85.42 96.5 86.1 C97.16 86.1 97.82 86.1 98.5 86.1 C103.03 93.18 103.63 99.79 102.5 108.1 C100.3 113.82 96.78 117.59 91.23 120.14 C88.26 121.18 85.88 121.46 82.75 121.54 C81.3 121.6 81.3 121.6 79.82 121.66 C71.2 120.21 65.04 114.22 59.1 108.21 C57.92 107.04 57.92 107.04 56.72 105.84 C54.15 103.28 51.6 100.71 49.04 98.14 C47.25 96.34 45.45 94.55 43.66 92.76 C39.91 89.01 36.17 85.26 32.43 81.5 C28.12 77.16 23.8 72.84 19.47 68.52 C15.29 64.35 11.12 60.18 6.95 55.99 C5.18 54.22 3.42 52.45 1.64 50.69 C-0.83 48.21 -3.29 45.73 -5.76 43.25 C-6.49 42.52 -7.21 41.8 -7.97 41.05 C-14.29 34.64 -18.09 29.08 -18.6 19.88 C-18.4 13.88 -16.73 9.07 -12.69 4.6 C-9.83 2 -7.39 1.37 -3.5 1.1 C-2.5 0.1 -2.5 0.1 0 0 Z M97.5 88.1 C98.5 90.1 98.5 90.1 98.5 90.1 Z " fill="#F5B53F" transform="translate(981.50390625,962.90234375)"/>
<path d="M0 0 C0 0.66 0 1.32 0 2 C0.66 2 1.32 2 2 2 C2 2.66 2 3.32 2 4 C2.99 4.33 3.98 4.66 5 5 C5 5.66 5 6.32 5 7 C5.66 7 6.32 7 7 7 C7 7.66 7 8.32 7 9 C7.99 9.33 8.98 9.66 10 10 C10 10.66 10 11.32 10 12 C10.66 12 11.32 12 12 12 C12 12.66 12 13.32 12 14 C12.99 14.33 13.98 14.66 15 15 C15 15.66 15 16.32 15 17 C15.66 17 16.32 17 17 17 C17 17.66 17 18.32 17 19 C17.99 19.33 18.98 19.66 20 20 C20 20.66 20 21.32 20 22 C20.66 22 21.32 22 22 22 C22 22.66 22 23.32 22 24 C22.99 24.33 23.98 24.66 25 25 C25 25.66 25 26.32 25 27 C25.66 27 26.32 27 27 27 C27 27.66 27 28.32 27 29 C27.99 29.33 28.98 29.66 30 30 C30 30.66 30 31.32 30 32 C30.66 32 31.32 32 32 32 C32 32.66 32 33.32 32 34 C33.49 34.5 33.49 34.5 35 35 C35 35.66 35 36.32 35 37 C35.66 37 36.32 37 37 37 C37 37.66 37 38.32 37 39 C38.49 39.5 38.49 39.5 40 40 C40 40.66 40 41.32 40 42 C40.66 42 41.32 42 42 42 C42 42.66 42 43.32 42 44 C43.49 44.5 43.49 44.5 45 45 C45 45.66 45 46.32 45 47 C45.66 47 46.32 47 47 47 C47 47.66 47 48.32 47 49 C48.49 49.5 48.49 49.5 50 50 C50 50.66 50 51.32 50 52 C50.66 52 51.32 52 52 52 C52 52.66 52 53.32 52 54 C53.49 54.5 53.49 54.5 55 55 C55 55.66 55 56.32 55 57 C55.66 57 56.32 57 57 57 C57 57.66 57 58.32 57 59 C58.49 59.5 58.49 59.5 60 60 C60 60.66 60 61.32 60 62 C60.66 62 61.32 62 62 62 C62 62.66 62 63.32 62 64 C63.49 64.5 63.49 64.5 65 65 C65 65.66 65 66.32 65 67 C65.66 67 66.32 67 67 67 C67 67.66 67 68.32 67 69 C68.49 69.5 68.49 69.5 70 70 C70 70.66 70 71.32 70 72 C70.66 72 71.32 72 72 72 C72 72.66 72 73.32 72 74 C73.49 74.5 73.49 74.5 75 75 C75 75.66 75 76.32 75 77 C75.66 77 76.32 77 77 77 C77 77.66 77 78.32 77 79 C78.49 79.5 78.49 79.5 80 80 C80.33 81.65 80.66 83.3 81 85 C81.66 85 82.32 85 83 85 C85.36 93.18 85.36 93.18 84 98 C83.66 100.33 83.32 102.66 83 105 C82.34 105 81.68 105 81 105 C80.9 105.6 80.79 106.2 80.69 106.81 C79.89 109.33 79.08 110.4 77 112 C76.01 112 75.02 112 74 112 C74 112.66 74 113.32 74 114 C70.96 114.11 67.92 114.19 64.88 114.25 C64.02 114.28 63.16 114.32 62.28 114.35 C61.02 114.37 61.02 114.37 59.74 114.39 C58.98 114.41 58.21 114.43 57.43 114.45 C50.69 113.19 45.69 106.97 41.07 102.33 C39.91 101.17 39.91 101.17 38.73 100 C36.19 97.47 33.66 94.93 31.13 92.4 C29.37 90.64 27.61 88.88 25.84 87.12 C21.69 82.96 17.53 78.8 13.38 74.64 C9.6 70.84 5.8 67.05 2 63.27 C-2.11 59.17 -6.21 55.06 -10.31 50.96 C-12.06 49.21 -13.8 47.46 -15.55 45.72 C-17.99 43.29 -20.42 40.85 -22.84 38.42 C-23.57 37.69 -24.3 36.97 -25.05 36.22 C-25.71 35.56 -26.37 34.89 -27.04 34.21 C-27.62 33.64 -28.19 33.06 -28.78 32.47 C-30 31 -30 31 -30 29 C-30.66 29 -31.32 29 -32 29 C-36.27 21.93 -37.28 15.83 -35.49 7.7 C-33.98 3.1 -31.88 -0 -28 -3 C-24.44 -4.25 -24.44 -4.25 -21 -5 C-20.37 -5.19 -19.74 -5.39 -19.09 -5.59 C-12.29 -6.93 -5.54 -3.61 0 0 Z M83 94 C84 96 84 96 84 96 Z M76 107 C76.33 107.66 76.66 108.32 77 109 C77.33 108.34 77.66 107.68 78 107 C77.34 107 76.68 107 76 107 Z " fill="#F5B53F" transform="translate(231,200)"/>
<path d="M0 0 C1.01 0 2.02 0.01 3.05 0.01 C4.7 0.03 4.7 0.03 6.39 0.04 C8.13 0.05 8.13 0.05 9.91 0.06 C13.76 0.08 17.61 0.12 21.46 0.15 C23.46 0.16 25.46 0.18 27.45 0.19 C33.73 0.23 40.01 0.28 46.29 0.34 C52.77 0.39 59.24 0.44 65.72 0.48 C71.28 0.51 76.84 0.55 82.41 0.6 C85.73 0.63 89.05 0.65 92.37 0.67 C96.07 0.69 99.77 0.72 103.48 0.76 C104.58 0.76 105.67 0.77 106.8 0.77 C107.81 0.78 108.83 0.8 109.87 0.81 C110.74 0.82 111.62 0.82 112.52 0.83 C117.71 1.39 121.95 3.88 126 7.1 C126.87 9.85 126.87 9.85 127 12.1 C127.99 12.43 128.98 12.76 130 13.1 C130.02 15.89 130.04 18.68 130.06 21.47 C130.07 22.26 130.08 23.06 130.08 23.88 C130.11 29.87 130.11 29.87 129 32.1 C128.34 32.1 127.68 32.1 127 32.1 C126.84 33 126.84 33 126.67 33.93 C125.73 36.95 123.88 38.37 121.29 40.08 C116.58 42.17 111.55 41.8 106.49 41.77 C105.24 41.79 103.99 41.8 102.71 41.81 C99.31 41.84 95.91 41.84 92.5 41.83 C89.65 41.83 86.81 41.84 83.96 41.85 C77.24 41.88 70.52 41.87 63.79 41.86 C56.87 41.84 49.96 41.87 43.04 41.91 C37.08 41.95 31.13 41.97 25.17 41.96 C21.62 41.95 18.07 41.96 14.52 41.99 C10.56 42.02 6.6 42 2.64 41.97 C1.47 41.99 0.3 42 -0.9 42.02 C-7.82 41.91 -11.55 40.85 -16.46 35.86 C-17.22 34.99 -17.22 34.99 -18 34.1 C-18.81 33.19 -19.61 32.28 -20.44 31.35 C-22.92 27.78 -23.16 24.9 -23.19 20.66 C-23.2 19.71 -23.22 18.76 -23.23 17.79 C-23 15.01 -22.37 13.49 -21 11.1 C-20.65 10.11 -20.3 9.12 -19.94 8.1 C-16.92 3.42 -12.38 2.1 -7.17 0.55 C-4.72 0.04 -2.51 -0.02 0 0 Z M121 34.1 C121 35.09 121 36.08 121 37.1 C121.66 36.44 122.32 35.78 123 35.1 C122.34 34.77 121.68 34.44 121 34.1 Z " fill="#F7B740" transform="translate(42.00303649902344,617.9042510986328)"/>
<path d="M0 0 C4.06 3.18 6.51 5.7 7.24 10.85 C7.4 14.17 7.42 17.45 7.39 20.77 C7.4 22.03 7.41 23.29 7.41 24.59 C7.43 28.03 7.43 31.47 7.41 34.91 C7.4 38.52 7.41 42.13 7.42 45.74 C7.43 51.8 7.42 57.86 7.4 63.92 C7.37 70.91 7.38 77.91 7.4 84.91 C7.42 90.92 7.42 96.94 7.41 102.96 C7.41 106.54 7.41 110.13 7.42 113.72 C7.43 117.73 7.41 121.73 7.39 125.73 C7.4 126.92 7.41 128.1 7.42 129.32 C7.33 137.78 5.97 141.02 0.12 147.12 C-5.47 150.96 -13.63 149.76 -20.12 149.25 C-20.78 148.92 -21.45 148.59 -22.12 148.25 C-22.12 147.59 -22.12 146.93 -22.12 146.25 C-22.88 146.17 -23.64 146.1 -24.42 146.02 C-27.85 145.04 -28.55 143.96 -30.39 140.96 C-33.72 134.93 -33.95 129.69 -33.84 122.92 C-33.84 121.73 -33.85 120.54 -33.85 119.31 C-33.86 116.07 -33.83 112.83 -33.8 109.6 C-33.77 106.19 -33.77 102.79 -33.77 99.39 C-33.76 93.69 -33.73 87.98 -33.69 82.27 C-33.63 74.96 -33.61 67.65 -33.6 60.34 C-33.59 54.03 -33.57 47.72 -33.54 41.41 C-33.53 39.4 -33.53 37.38 -33.52 35.36 C-33.51 31.59 -33.48 27.83 -33.45 24.06 C-33.45 22.95 -33.44 21.84 -33.44 20.69 C-33.38 15.47 -33.18 11.14 -31.12 6.25 C-30.98 5.53 -30.84 4.81 -30.69 4.06 C-29.96 1.72 -29 0.84 -27.12 -0.75 C-17.71 -4.82 -9.06 -5.07 0 0 Z " fill="#F3B33F" transform="translate(652.125,22.75)"/>
<path d="M0 0 C1.18 0 2.36 0.01 3.58 0.01 C6.8 0.03 10.03 0.05 13.25 0.08 C15.95 0.11 18.64 0.12 21.34 0.14 C27.7 0.18 34.06 0.24 40.42 0.29 C46.98 0.36 53.53 0.4 60.08 0.43 C65.72 0.46 71.36 0.5 77 0.55 C80.36 0.58 83.72 0.61 87.09 0.62 C90.84 0.64 94.58 0.68 98.33 0.72 C99.44 0.72 100.55 0.72 101.69 0.72 C108.86 0.83 113.34 1.74 118.85 6.62 C123.97 12.45 123.82 18.56 123.62 26.02 C123.24 30.8 121.55 33.5 118.02 36.74 C117.39 37.21 116.75 37.69 116.1 38.18 C115.51 38.7 114.92 39.22 114.31 39.75 C111.59 41.51 110 41.56 106.77 41.57 C105.69 41.58 104.61 41.59 103.49 41.6 C102.31 41.6 101.13 41.59 99.92 41.59 C98.05 41.6 98.05 41.6 96.14 41.61 C92.72 41.62 89.3 41.62 85.88 41.62 C83.02 41.62 80.16 41.62 77.3 41.63 C70.56 41.64 63.81 41.64 57.07 41.63 C50.12 41.62 43.17 41.63 36.22 41.66 C30.25 41.68 24.28 41.69 18.3 41.68 C14.74 41.68 11.17 41.68 7.61 41.7 C3.63 41.72 -0.35 41.7 -4.33 41.68 C-5.5 41.69 -6.68 41.7 -7.89 41.71 C-15.44 41.65 -19.88 40.67 -25.68 35.64 C-29.11 30.78 -29.36 26.15 -29.4 20.37 C-29.41 19.62 -29.41 18.86 -29.42 18.09 C-29.29 12.75 -29.29 12.75 -27.49 10.17 C-25.9 9.18 -25.9 9.18 -23.9 9.18 C-24.23 8.19 -24.56 7.2 -24.9 6.18 C-24.24 5.52 -23.58 4.86 -22.9 4.18 C-21.58 4.18 -20.26 4.18 -18.9 4.18 C-18.9 3.52 -18.9 2.86 -18.9 2.18 C-12.56 -0.09 -6.68 -0.07 0 0 Z M120.1 29.18 C121.1 31.18 121.1 31.18 121.1 31.18 Z M116.1 32.18 C117.1 34.18 117.1 34.18 117.1 34.18 Z " fill="#F8B740" transform="translate(1135.898681640625,617.817138671875)"/>
<path d="M0 0 C1.59 1.49 1.59 1.49 2.62 3.12 C2.62 4.44 2.62 5.77 2.62 7.12 C3.28 7.12 3.95 7.12 4.62 7.12 C4.84 24.05 4.99 40.97 5.09 57.9 C5.14 65.76 5.2 73.62 5.3 81.48 C5.39 88.33 5.45 95.18 5.47 102.03 C5.48 105.66 5.51 109.29 5.58 112.91 C5.65 116.97 5.65 121.02 5.65 125.08 C5.68 126.27 5.71 127.46 5.74 128.69 C5.67 135.23 4.85 138.63 0.19 143.38 C-5.71 148.57 -10.76 148.78 -18.37 148.61 C-23.13 148.26 -25.7 146.44 -28.89 142.94 C-29.38 142.34 -29.87 141.74 -30.38 141.12 C-31.58 140.01 -31.58 140.01 -32.81 138.88 C-35.54 135.83 -35.5 132.94 -35.5 129.04 C-35.5 127.99 -35.51 126.94 -35.51 125.85 C-35.51 124.7 -35.51 123.55 -35.5 122.36 C-35.51 121.14 -35.51 119.93 -35.51 118.68 C-35.51 115.34 -35.51 112.01 -35.51 108.68 C-35.51 105.19 -35.51 101.71 -35.51 98.22 C-35.51 92.37 -35.51 86.51 -35.51 80.66 C-35.5 73.89 -35.5 67.12 -35.51 60.35 C-35.51 54.54 -35.51 48.73 -35.51 42.91 C-35.51 39.44 -35.51 35.97 -35.51 32.5 C-35.51 28.63 -35.51 24.76 -35.5 20.89 C-35.51 19.74 -35.51 18.59 -35.51 17.4 C-35.51 16.35 -35.5 15.29 -35.5 14.21 C-35.5 13.3 -35.5 12.38 -35.5 11.44 C-35.38 9.12 -35.38 9.12 -34.38 6.12 C-33.72 6.12 -33.05 6.12 -32.38 6.12 C-32.38 4.47 -32.38 2.83 -32.38 1.12 C-31.24 0.67 -30.11 0.22 -28.94 -0.25 C-25.33 -1.45 -25.33 -1.45 -24.38 -3.88 C-16.56 -5.84 -6.44 -5.2 0 0 Z M1.62 136.12 C2.62 138.12 2.62 138.12 2.62 138.12 Z M-2.38 139.12 C-1.38 141.12 -1.38 141.12 -1.38 141.12 Z " fill="#F3B33F" transform="translate(654.375,1110.875)"/>
<path d="M0 0 C0.33 0 0.66 0 1 0 C1 40.59 1 81.18 1 123 C0.67 123 0.34 123 0 123 C0 82.41 0 41.82 0 0 Z " fill="#000000" transform="translate(660,1122)"/>
<path d="M0 0 C0.33 0 0.66 0 1 0 C1 40.59 1 81.18 1 123 C0.67 123 0.34 123 0 123 C0 82.41 0 41.82 0 0 Z " fill="#000000" transform="translate(660,35)"/>
<path d="M0 0 C39.93 0 79.86 0 121 0 C121 0.33 121 0.66 121 1 C81.07 1 41.14 1 0 1 C0 0.67 0 0.34 0 0 Z " fill="#000000" transform="translate(1123,660)"/>
<path d="M0 0 C39.93 0 79.86 0 121 0 C121 0.33 121 0.66 121 1 C81.07 1 41.14 1 0 1 C0 0.67 0 0.34 0 0 Z " fill="#000000" transform="translate(36,660)"/>
<path d="M0 0 C36.96 0 73.92 0 112 0 C112 0.33 112 0.66 112 1 C75.04 1 38.08 1 0 1 C0 0.67 0 0.34 0 0 Z " fill="#F9B841" transform="translate(1126,617)"/>
<path d="M0 0 C36.96 0 73.92 0 112 0 C112 0.33 112 0.66 112 1 C75.04 1 38.08 1 0 1 C0 0.67 0 0.34 0 0 Z " fill="#F9B841" transform="translate(38,617)"/>
<path d="M0 0 C18.81 0 37.62 0 57 0 C57 0.33 57 0.66 57 1 C38.19 1 19.38 1 0 1 C0 0.67 0 0.34 0 0 Z " fill="#000000" transform="translate(611,975)"/>
<path d="M0 0 C0.33 0 0.66 0 1 0 C1 9.24 1 18.48 1 28 C0.67 28 0.34 28 0 28 C0 18.76 0 9.52 0 0 Z " fill="#000000" transform="translate(975,644)"/>
<path d="M0 0 C0.33 0 0.66 0 1 0 C1 8.58 1 17.16 1 26 C0.67 26 0.34 26 0 26 C0 17.42 0 8.84 0 0 Z " fill="#000000" transform="translate(975,608)"/>
<path d="M0 0 C3.96 0 7.92 0 12 0 C12 0.33 12 0.66 12 1 C8.04 1 4.08 1 0 1 C0 0.67 0 0.34 0 0 Z " fill="#000000" transform="translate(681,972)"/>
<path d="M0 0 C3.96 0 7.92 0 12 0 C12 0.33 12 0.66 12 1 C8.04 1 4.08 1 0 1 C0 0.67 0 0.34 0 0 Z " fill="#000000" transform="translate(587,972)"/>
<path d="M0 0 C3.96 0 7.92 0 12 0 C12 0.33 12 0.66 12 1 C8.04 1 4.08 1 0 1 C0 0.67 0 0.34 0 0 Z " fill="#000000" transform="translate(634,172)"/>
<path d="M0 0 C3.63 0 7.26 0 11 0 C11 0.33 11 0.66 11 1 C7.37 1 3.74 1 0 1 C0 0.67 0 0.34 0 0 Z " fill="#000000" transform="translate(979,315)"/>
<path d="M0 0 C3.63 0 7.26 0 11 0 C11 0.33 11 0.66 11 1 C7.37 1 3.74 1 0 1 C0 0.67 0 0.34 0 0 Z " fill="#000000" transform="translate(290,315)"/>
<path d="M0 0 C3.3 0 6.6 0 10 0 C10 0.33 10 0.66 10 1 C6.7 1 3.4 1 0 1 C0 0.67 0 0.34 0 0 Z " fill="#F9B841" transform="translate(633,302)"/>
<path d="M0 0 C0.33 0 0.66 0 1 0 C1 2.97 1 5.94 1 9 C0.67 9 0.34 9 0 9 C0 6.03 0 3.06 0 0 Z " fill="#000000" transform="translate(1260,635)"/>
<path d="M0 0 C0.33 0 0.66 0 1 0 C1 2.31 1 4.62 1 7 C0.67 7 0.34 7 0 7 C0 4.69 0 2.38 0 0 Z " fill="#000000" transform="translate(970,699)"/>
<path d="M0 0 C1.98 0 3.96 0 6 0 C6 0.33 6 0.66 6 1 C4.02 1 2.04 1 0 1 C0 0.67 0 0.34 0 0 Z " fill="#000000" transform="translate(637,1260)"/>
<path d="M0 0 C1.65 0 3.3 0 5 0 C5 0.33 5 0.66 5 1 C3.35 1 1.7 1 0 1 C0 0.67 0 0.34 0 0 Z " fill="#000000" transform="translate(699,970)"/>
<path d="M0 0 C1.65 0 3.3 0 5 0 C5 0.33 5 0.66 5 1 C3.35 1 1.7 1 0 1 C0 0.67 0 0.34 0 0 Z " fill="#000000" transform="translate(576,970)"/>
<path d="M0 0 C0.33 0 0.66 0 1 0 C1 1.65 1 3.3 1 5 C0.67 5 0.34 5 0 5 C0 3.35 0 1.7 0 0 Z " fill="#000000" transform="translate(970,574)"/>
<path d="M0 0 C4 1 4 1 4 1 Z " fill="#000000" transform="translate(732,962)"/>
<path d="M0 0 C4 1 4 1 4 1 Z " fill="#000000" transform="translate(544,962)"/>
<path d="M0 0 C4 1 4 1 4 1 Z " fill="#F9B841" transform="translate(291,962)"/>
<path d="M0 0 C4 1 4 1 4 1 Z " fill="#F9B841" transform="translate(644,302)"/>
<path d="M0 0 C4 1 4 1 4 1 Z " fill="#F9B841" transform="translate(628,302)"/>
<path d="" fill="#000000" transform="translate(0,0)"/>
<path d="" fill="#000000" transform="translate(0,0)"/>
<path d="" fill="#000000" transform="translate(0,0)"/>
<path d="" fill="#000000" transform="translate(0,0)"/>
<path d="" fill="#000000" transform="translate(0,0)"/>
<path d="" fill="#000000" transform="translate(0,0)"/>
<path d="" fill="#F9B841" transform="translate(0,0)"/>
<path d="M0 0 C2 1 2 1 2 1 Z " fill="#000000" transform="translate(724,965)"/>
<path d="M0 0 C2 1 2 1 2 1 Z " fill="#000000" transform="translate(554,965)"/>
<path d="M0 0 C2 1 2 1 2 1 Z " fill="#000000" transform="translate(741,960)"/>
<path d="M0 0 C2 1 2 1 2 1 Z " fill="#000000" transform="translate(537,960)"/>
<path d="M0 0 C2 1 2 1 2 1 Z " fill="#000000" transform="translate(504,947)"/>
<path d="" fill="#000000" transform="translate(0,0)"/>
<path d="" fill="#000000" transform="translate(0,0)"/>
<path d="" fill="#000000" transform="translate(0,0)"/>
<path d="" fill="#000000" transform="translate(0,0)"/>
<path d="" fill="#000000" transform="translate(0,0)"/>
<path d="" fill="#000000" transform="translate(0,0)"/>
<path d="" fill="#000000" transform="translate(0,0)"/>
<path d="" fill="#F9B841" transform="translate(0,0)"/>
<path d="" fill="#000000" transform="translate(0,0)"/>
<path d="" fill="#A26F20" transform="translate(0,0)"/>
<path d="" fill="#000000" transform="translate(0,0)"/>
<path d="" fill="#000000" transform="translate(0,0)"/>
<path d="" fill="#000000" transform="translate(0,0)"/>
<path d="" fill="#000000" transform="translate(0,0)"/>
<path d="" fill="#000000" transform="translate(0,0)"/>
<path d="" fill="#000000" transform="translate(0,0)"/>
<path d="" fill="#000000" transform="translate(0,0)"/>
<path d="" fill="#000000" transform="translate(0,0)"/>
<path d="" fill="#000000" transform="translate(0,0)"/>
<path d="" fill="#000000" transform="translate(0,0)"/>
<path d="" fill="#000000" transform="translate(0,0)"/>
<path d="" fill="#000000" transform="translate(0,0)"/>
<path d="" fill="#000000" transform="translate(0,0)"/>
<path d="" fill="#000000" transform="translate(0,0)"/>
<path d="" fill="#A26F20" transform="translate(0,0)"/>
<path d="" fill="#000000" transform="translate(0,0)"/>
<path d="" fill="#000000" transform="translate(0,0)"/>
<path d="" fill="#F9B841" transform="translate(0,0)"/>
<path d="" fill="#000000" transform="translate(0,0)"/>
<path d="" fill="#000000" transform="translate(0,0)"/>
<path d="" fill="#F9B841" transform="translate(0,0)"/>
<path d="" fill="#000000" transform="translate(0,0)"/>
<path d="" fill="#000000" transform="translate(0,0)"/>
<path d="" fill="#F9B841" transform="translate(0,0)"/>
<path d="" fill="#000000" transform="translate(0,0)"/>
<path d="" fill="#000000" transform="translate(0,0)"/>
<path d="" fill="#000000" transform="translate(0,0)"/>
<path d="" fill="#A26F20" transform="translate(0,0)"/>
<path d="" fill="#F9B841" transform="translate(0,0)"/>
<path d="" fill="#A26F20" transform="translate(0,0)"/>
<path d="" fill="#000000" transform="translate(0,0)"/>
<path d="" fill="#F9B841" transform="translate(0,0)"/>
<path d="" fill="#F9B841" transform="translate(0,0)"/>
<path d="" fill="#000000" transform="translate(0,0)"/>
<path d="" fill="#000000" transform="translate(0,0)"/>
<path d="" fill="#000000" transform="translate(0,0)"/>
<path d="" fill="#F9B841" transform="translate(0,0)"/>
<path d="" fill="#000000" transform="translate(0,0)"/>
<path d="" fill="#F9B841" transform="translate(0,0)"/>
<path d="" fill="#F9B841" transform="translate(0,0)"/>
<path d="" fill="#F9B841" transform="translate(0,0)"/>
<path d="" fill="#F9B841" transform="translate(0,0)"/>
<path d="" fill="#F9B841" transform="translate(0,0)"/>
<path d="" fill="#F9B841" transform="translate(0,0)"/>
<path d="" fill="#F9B841" transform="translate(0,0)"/>
<path d="" fill="#000000" transform="translate(0,0)"/>
<path d="" fill="#F9B841" transform="translate(0,0)"/>
<path d="" fill="#F9B841" transform="translate(0,0)"/>
<path d="" fill="#F9B841" transform="translate(0,0)"/>
<path d="" fill="#F9B841" transform="translate(0,0)"/>
<path d="" fill="#F9B841" transform="translate(0,0)"/>
<path d="" fill="#F9B841" transform="translate(0,0)"/>
<path d="" fill="#F9B841" transform="translate(0,0)"/>
</svg>
