<?xml version="1.0" encoding="UTF-8"?>
<!-- Generator: visioncortex VTracer 0.6.3 -->
<svg version="1.1" xmlns="http://www.w3.org/2000/svg" width="1280" height="1280">
<path d="M0 0 C0.92 -0 1.85 -0 2.8 -0.01 C5.84 -0.01 8.88 -0.01 11.92 -0 C14.05 -0 16.17 -0.01 18.29 -0.01 C22.74 -0.01 27.18 -0.01 31.62 -0 C37.31 0 42.99 0 48.67 -0 C53.06 -0.01 57.44 -0.01 61.82 -0 C63.92 -0 66.01 -0 68.11 -0.01 C71.04 -0.01 73.98 -0.01 76.91 0 C77.77 -0 78.63 -0 79.51 -0.01 C84.61 0.01 89.47 0.42 94.52 1.13 C97.18 1.34 99.85 1.49 102.52 1.63 C107.89 1.94 113.19 2.34 118.52 3.13 C120.08 3.35 120.08 3.35 121.67 3.57 C127.18 4.36 132.27 5.24 137.52 7.13 C137.85 6.47 138.18 5.81 138.52 5.13 C138.52 5.79 138.52 6.45 138.52 7.13 C139.15 7.19 139.77 7.25 140.42 7.31 C141.24 7.4 142.05 7.48 142.89 7.57 C144.11 7.69 144.11 7.69 145.36 7.81 C147.52 8.13 147.52 8.13 149.52 9.13 C149.85 8.47 150.18 7.81 150.52 7.13 C152.04 7.56 152.04 7.56 153.58 8 C154.22 8.18 154.85 8.36 155.5 8.55 C157.45 9.11 159.39 9.71 161.33 10.32 C164.39 11.47 164.39 11.47 166.52 10.13 C166.52 10.79 166.52 11.45 166.52 12.13 C171.5 12.88 171.5 12.88 176.52 13.13 C179.12 13.88 181.67 14.72 184.24 15.57 C186.53 16.39 186.53 16.39 188.52 15.13 C188.52 15.79 188.52 16.45 188.52 17.13 C189.15 17.17 189.78 17.2 190.43 17.24 C194.9 17.59 198.84 18.07 203.02 19.75 C204.75 20.44 204.75 20.44 206.52 21.13 C207.18 20.8 207.84 20.47 208.52 20.13 C208.52 20.79 208.52 21.45 208.52 22.13 C211.28 22.73 213.68 23.13 216.52 23.13 C217.95 23.55 219.37 24.01 220.77 24.5 C224.66 25.84 228.56 27.03 232.52 28.13 C233.78 28.5 235.04 28.87 236.33 29.25 C239.29 30.22 239.29 30.22 241.52 30.13 C241.85 30.79 242.18 31.45 242.52 32.13 C244.47 32.78 244.47 32.78 246.77 33.19 C247.58 33.36 248.39 33.52 249.22 33.7 C250.98 34.03 252.75 34.33 254.52 34.63 C255.18 34.79 255.84 34.96 256.52 35.13 C256.85 35.79 257.18 36.45 257.52 37.13 C261.5 39.08 264.04 40.13 268.52 40.13 C268.52 40.79 268.52 41.45 268.52 42.13 C270.07 42.56 270.07 42.56 271.64 43 C278.2 44.89 284.31 47.32 290.52 50.13 C294.79 52.03 299.06 53.72 303.52 55.13 C303.52 55.79 303.52 56.45 303.52 57.13 C305.02 57.51 305.02 57.51 306.55 57.9 C310.66 59.08 314.3 60.85 318.08 62.82 C319.48 63.53 320.88 64.24 322.27 64.95 C322.98 65.31 323.68 65.67 324.4 66.04 C327.76 67.76 331.14 69.45 334.52 71.13 C336.52 72.13 338.52 73.13 340.52 74.13 C340.52 74.79 340.52 75.45 340.52 76.13 C341.26 76.25 342 76.38 342.77 76.5 C345.33 77.09 347.21 77.93 349.52 79.13 C350.18 79.13 350.84 79.13 351.52 79.13 C352.18 80.12 352.84 81.11 353.52 82.13 C356.47 84.17 357.89 85.13 361.52 85.13 C361.52 85.79 361.52 86.45 361.52 87.13 C362.84 87.13 364.16 87.13 365.52 87.13 C365.52 87.79 365.52 88.45 365.52 89.13 C367.99 89.62 367.99 89.62 370.52 90.13 C370.52 90.79 370.52 91.45 370.52 92.13 C373.16 93.12 375.8 94.11 378.52 95.13 C378.52 95.79 378.52 96.45 378.52 97.13 C380.19 97.81 380.19 97.81 381.89 98.5 C385.52 100.13 385.52 100.13 387.52 102.13 C388.18 102.13 388.84 102.13 389.52 102.13 C389.85 102.79 390.18 103.45 390.52 104.13 C391.51 104.46 392.5 104.79 393.52 105.13 C394.52 106.13 395.52 107.13 396.52 108.13 C398.62 109.31 398.62 109.31 400.52 110.13 C400.52 111.12 400.52 112.11 400.52 113.13 C402.83 113.46 405.14 113.79 407.52 114.13 C407.85 115.12 408.18 116.11 408.52 117.13 C410.74 118.51 413.04 119.61 415.39 120.75 C417.82 122.32 418.35 123.55 419.52 126.13 C421.91 127.24 421.91 127.24 424.52 128.13 C426.8 129.7 428.88 131.43 431.02 133.19 C433.35 135.14 433.35 135.14 435.64 136.13 C438 137.38 438.98 138.98 440.52 141.13 C442.54 142.48 444.58 143.79 446.64 145.07 C449.52 147.13 449.52 147.13 450.52 150.13 C451.18 150.13 451.84 150.13 452.52 150.13 C452.52 150.79 452.52 151.45 452.52 152.13 C453.51 152.13 454.5 152.13 455.52 152.13 C455.52 152.79 455.52 153.45 455.52 154.13 C456.51 154.46 457.5 154.79 458.52 155.13 C458.52 155.79 458.52 156.45 458.52 157.13 C460.78 158.64 463.03 159.91 465.52 161 C468.31 162.57 470.29 164.86 472.52 167.13 C473.79 168.4 475.06 169.66 476.33 170.92 C480.24 174.82 484.15 178.71 488.06 182.61 C489.74 184.29 491.43 185.97 493.11 187.65 C495.55 190.08 497.99 192.51 500.43 194.94 C501.18 195.69 501.93 196.43 502.71 197.2 C506.2 200.7 509.53 204.17 512.52 208.13 C515.2 211.35 517.85 214.5 520.89 217.38 C522.52 219.13 522.52 219.13 522.52 222.13 C523.18 222.13 523.84 222.13 524.52 222.13 C524.52 222.79 524.52 223.45 524.52 224.13 C525.51 224.46 526.5 224.79 527.52 225.13 C528.91 226.48 528.91 226.48 530.33 228.19 C530.85 228.82 531.37 229.45 531.91 230.1 C534.02 232.76 536.06 235.48 538.07 238.22 C539.4 239.97 540.78 241.65 542.21 243.32 C544.52 246.13 544.52 246.13 545.89 248.5 C547.89 251.73 550.33 254.38 552.9 257.16 C554.48 259.09 555.46 260.89 556.52 263.13 C558.5 265.71 560.56 268.18 562.71 270.63 C564.52 273.13 564.52 273.13 565.02 275.82 C565.27 276.96 565.27 276.96 565.52 278.13 C567.49 279.49 567.49 279.49 569.52 280.13 C569.52 280.79 569.52 281.45 569.52 282.13 C570.18 282.13 570.84 282.13 571.52 282.13 C572.65 284.87 573.64 287.53 574.46 290.38 C574.98 291.74 574.98 291.74 575.52 293.13 C576.51 293.46 577.5 293.79 578.52 294.13 C579.56 296.11 580.55 298.11 581.52 300.13 C582.84 301.81 584.17 303.48 585.52 305.13 C586.22 306.45 586.89 307.78 587.52 309.13 C588.86 311.43 590.25 313.7 591.68 315.95 C594.25 319.97 596.53 324.01 598.61 328.31 C599.59 330.33 599.59 330.33 601.27 332.94 C602.52 335.13 602.52 335.13 602.52 338.13 C603.18 338.13 603.84 338.13 604.52 338.13 C606.55 341.86 607.52 343.8 607.52 348.13 C608.18 348.13 608.84 348.13 609.52 348.13 C611.55 351.86 612.52 353.8 612.52 358.13 C613.18 358.13 613.84 358.13 614.52 358.13 C616.55 361.86 617.52 363.8 617.52 368.13 C618.18 368.13 618.84 368.13 619.52 368.13 C619.89 369.34 619.89 369.34 620.27 370.57 C622.9 378.06 626.38 384.83 630.45 391.65 C631.52 394.13 631.52 394.13 631.19 396.45 C630.97 397.01 630.75 397.56 630.52 398.13 C631.18 398.13 631.84 398.13 632.52 398.13 C632.52 399.78 632.52 401.43 632.52 403.13 C633.18 403.13 633.84 403.13 634.52 403.13 C634.89 404.61 634.89 404.61 635.27 406.13 C636.28 409.73 637.82 412.86 639.62 416.14 C640.66 418.44 641.03 420.65 641.52 423.13 C642.15 424.81 642.82 426.48 643.52 428.13 C644.94 431.48 645.81 434.57 646.52 438.13 C647.15 439.81 647.82 441.48 648.52 443.13 C649.94 446.47 650.85 449.56 651.52 453.13 C651.98 454.76 652.46 456.39 652.96 458 C653.22 458.88 653.49 459.75 653.76 460.65 C654.01 461.47 654.26 462.29 654.52 463.13 C655.67 466.99 656.68 470.82 657.52 474.75 C658.06 477.31 658.65 479.45 659.64 481.88 C660.64 484.44 660.52 486.41 660.52 489.13 C661.18 490.12 661.84 491.11 662.52 492.13 C662.86 494.47 662.86 494.47 663.02 497.07 C663.24 500.66 663.85 502.96 665.52 506.13 C665.88 508.46 666.22 510.79 666.52 513.13 C666.85 513.79 667.18 514.45 667.52 515.13 C667.83 518.24 668.03 521.36 668.24 524.48 C668.23 527.05 668.23 527.05 669.52 528.13 C669.81 530.87 669.97 533.62 670.14 536.37 C670.35 539.07 670.35 539.07 671.52 540.99 C673.02 544.21 672.91 547.52 673.02 551 C673.14 554.83 673.25 558.36 674.52 562.02 C675.91 566.35 675.91 570.54 676.02 575.07 C676.06 576.81 676.12 578.54 676.18 580.28 C676.19 581.04 676.21 581.81 676.23 582.59 C676.45 585.26 676.45 585.26 677.52 588.19 C678.82 592.67 678.8 596.99 678.78 601.63 C678.78 602.55 678.79 603.48 678.79 604.43 C678.8 607.48 678.79 610.52 678.79 613.57 C678.79 615.69 678.79 617.82 678.79 619.94 C678.79 624.39 678.79 628.84 678.78 633.29 C678.77 638.98 678.78 644.67 678.79 650.37 C678.79 654.75 678.79 659.14 678.79 663.53 C678.79 665.63 678.79 667.73 678.79 669.82 C678.8 672.76 678.79 675.7 678.78 678.63 C678.78 679.49 678.79 680.36 678.79 681.24 C678.76 686.27 678.08 690.35 676.52 695.13 C676.2 697.62 676.2 697.62 676.18 699.98 C676.15 700.83 676.12 701.68 676.09 702.56 C676.04 704.32 676 706.08 675.95 707.83 C675.78 712.7 675.13 716.5 673.52 721.13 C673.22 724.53 673.06 727.89 672.95 731.3 C672.78 735.35 672.13 738.42 670.52 742.13 C670.52 743.31 670.52 744.48 670.52 745.69 C670.52 749.13 670.52 749.13 669.55 750.97 C668.23 753.74 668.17 756.07 668.02 759.13 C667.82 763.08 667.37 765.66 665.52 769.13 C665.52 770.14 665.52 771.15 665.52 772.19 C665.52 775.13 665.52 775.13 663.52 778.13 C663.14 780.5 663.14 780.5 663.02 783.07 C662.8 786.67 662.16 788.94 660.52 792.13 C660.11 794.22 660.11 794.22 659.96 796.32 C659.52 800.13 659.52 800.13 658.52 801.13 C658.19 802.45 657.91 803.79 657.64 805.13 C656.78 809.2 655.59 813.04 654.23 816.97 C653.39 819.53 652.75 822.13 652.12 824.75 C651.31 827.96 650.42 831.14 649.52 834.32 C649.19 835.49 648.86 836.66 648.52 837.86 C647.65 840.7 646.64 843.38 645.52 846.13 C645 847.79 644.5 849.46 644.02 851.13 C643.01 854.55 641.91 857.84 640.52 861.13 C640.02 862.48 639.52 863.84 639.02 865.19 C638 867.94 636.83 870.51 635.52 873.13 C635.15 874.45 634.81 875.79 634.52 877.13 C633.86 877.13 633.2 877.13 632.52 877.13 C632.52 878.78 632.52 880.43 632.52 882.13 C631.86 882.13 631.2 882.13 630.52 882.13 C630.4 883.89 630.4 883.89 630.27 885.69 C629.71 890.14 627.87 893.38 625.52 897.13 C623.37 901.03 621.54 904.86 620.27 909.13 C618.16 915.81 614.73 921.93 611.54 928.14 C610.01 931.12 608.52 934.13 607.02 937.13 C606.19 938.8 605.35 940.46 604.52 942.13 C603.86 942.13 603.2 942.13 602.52 942.13 C602.41 942.86 602.3 943.58 602.19 944.33 C601.47 947.33 600.41 949.29 598.77 951.88 C596.76 955.12 594.8 958.36 592.96 961.69 C592.55 962.42 592.15 963.15 591.73 963.91 C590.91 965.42 590.09 966.93 589.27 968.45 C586.97 972.69 584.53 976.67 581.65 980.56 C580.35 982.31 580.35 982.31 578.83 985.07 C578.4 985.75 577.97 986.43 577.52 987.13 C576.86 987.13 576.2 987.13 575.52 987.13 C575.4 988.21 575.4 988.21 575.27 989.32 C574.36 992.73 572.79 994.46 570.52 997.13 C569.98 998.06 569.45 998.99 568.89 999.94 C568.44 1000.66 567.99 1001.39 567.52 1002.13 C566.86 1002.13 566.2 1002.13 565.52 1002.13 C565.4 1003.21 565.4 1003.21 565.27 1004.32 C564.14 1008.54 561.55 1011.1 558.52 1014.13 C558.52 1013.47 558.52 1012.81 558.52 1012.13 C557.53 1012.13 556.54 1012.13 555.52 1012.13 C556.18 1013.45 556.84 1014.77 557.52 1016.13 C556.27 1017.86 555.02 1019.59 553.77 1021.32 C552.73 1022.76 552.73 1022.76 551.66 1024.23 C549.1 1027.69 546.57 1031.08 543.52 1034.13 C543.52 1033.47 543.52 1032.81 543.52 1032.13 C542.53 1032.13 541.54 1032.13 540.52 1032.13 C540.52 1033.12 540.52 1034.11 540.52 1035.13 C541.18 1035.46 541.84 1035.79 542.52 1036.13 C541.9 1036.56 541.28 1037 540.64 1037.44 C537.94 1039.59 536.68 1041.76 535.31 1044.9 C533.07 1048.94 530.23 1051.67 526.89 1054.82 C525.71 1055.94 524.53 1057.07 523.36 1058.2 C522.84 1058.69 522.32 1059.19 521.78 1059.69 C520.27 1061.22 520.27 1061.22 519.52 1064.13 C519.19 1063.47 518.86 1062.81 518.52 1062.13 C517.53 1062.13 516.54 1062.13 515.52 1062.13 C516.18 1063.45 516.84 1064.77 517.52 1066.13 C501.02 1082.63 484.52 1099.13 467.52 1116.13 C466.2 1115.47 464.88 1114.81 463.52 1114.13 C463.52 1115.12 463.52 1116.11 463.52 1117.13 C464.18 1117.46 464.84 1117.79 465.52 1118.13 C462.52 1118.13 462.52 1118.13 460.52 1117.13 C460.52 1118.12 460.52 1119.11 460.52 1120.13 C461.18 1120.46 461.84 1120.79 462.52 1121.13 C461.82 1121.5 461.11 1121.87 460.39 1122.26 C456.38 1124.87 453.35 1128.2 450.07 1131.66 C446.81 1135.02 443.52 1137.64 439.52 1140.13 C438.89 1140.55 438.27 1140.96 437.62 1141.4 C436.25 1142.31 434.89 1143.22 433.52 1144.13 C433.52 1143.47 433.52 1142.81 433.52 1142.13 C432.53 1142.13 431.54 1142.13 430.52 1142.13 C430.52 1143.12 430.52 1144.11 430.52 1145.13 C431.18 1145.46 431.84 1145.79 432.52 1146.13 C431.82 1146.52 431.12 1146.91 430.39 1147.32 C427.82 1148.94 425.56 1150.7 423.25 1152.67 C417.91 1157.16 412.37 1161.31 406.52 1165.13 C404 1166.89 401.49 1168.67 398.98 1170.45 C397.36 1171.55 395.71 1172.62 394.02 1173.63 C391.43 1175.18 388.98 1176.87 386.52 1178.63 C380.35 1183.02 373.81 1186.71 367.26 1190.51 C365.31 1191.66 363.4 1192.87 361.52 1194.13 C360.2 1194.13 358.88 1194.13 357.52 1194.13 C357.19 1195.12 356.86 1196.11 356.52 1197.13 C354.74 1198.15 354.74 1198.15 352.52 1199.13 C350.22 1200.44 347.93 1201.77 345.64 1203.11 C343.52 1204.13 343.52 1204.13 340.52 1204.13 C340.52 1204.79 340.52 1205.45 340.52 1206.13 C336.79 1208.16 334.85 1209.13 330.52 1209.13 C330.52 1209.79 330.52 1210.45 330.52 1211.13 C326.79 1213.16 324.85 1214.13 320.52 1214.13 C320.52 1214.79 320.52 1215.45 320.52 1216.13 C316.79 1218.16 314.85 1219.13 310.52 1219.13 C310.52 1219.79 310.52 1220.45 310.52 1221.13 C309.03 1221.5 309.03 1221.5 307.52 1221.88 C302.31 1223.37 297.72 1225.95 292.97 1228.5 C292.1 1228.96 291.23 1229.41 290.33 1229.88 C289.53 1230.31 288.74 1230.74 287.91 1231.18 C285.28 1232.23 283.33 1232.31 280.52 1232.13 C280.52 1232.79 280.52 1233.45 280.52 1234.13 C278.87 1234.13 277.22 1234.13 275.52 1234.13 C275.52 1234.79 275.52 1235.45 275.52 1236.13 C274.03 1236.5 274.03 1236.5 272.52 1236.88 C268.91 1237.89 265.79 1239.43 262.51 1241.23 C260.2 1242.27 258 1242.64 255.52 1243.13 C253.84 1243.76 252.17 1244.43 250.52 1245.13 C247.17 1246.55 244.08 1247.42 240.52 1248.13 C238.84 1248.76 237.17 1249.43 235.52 1250.13 C232.18 1251.55 229.09 1252.46 225.52 1253.13 C223.89 1253.59 222.26 1254.07 220.64 1254.57 C219.77 1254.83 218.9 1255.1 218 1255.37 C217.18 1255.62 216.36 1255.87 215.52 1256.13 C210.82 1257.53 206.14 1258.68 201.34 1259.66 C199.51 1259.97 199.51 1259.97 198.52 1261.13 C196.27 1261.41 194.01 1261.58 191.75 1261.75 C189.24 1262.02 189.24 1262.02 186.52 1264.13 C184.43 1264.47 184.43 1264.47 182.14 1264.63 C178.56 1264.95 175.85 1265.73 172.52 1267.13 C170.19 1267.48 167.86 1267.82 165.52 1268.13 C164.86 1268.46 164.2 1268.79 163.52 1269.13 C160.7 1269.44 157.88 1269.64 155.05 1269.85 C152.53 1269.98 152.53 1269.98 150.52 1271.13 C147.76 1271.4 145.01 1271.58 142.25 1271.75 C139.58 1271.96 139.58 1271.96 137.68 1273.13 C134.37 1274.66 130.92 1274.56 127.33 1274.69 C122.54 1274.46 122.54 1274.46 118.52 1276.13 C112.44 1277.21 106.36 1277.43 100.19 1277.65 C99.43 1277.68 98.68 1277.72 97.89 1277.75 C97.22 1277.78 96.55 1277.8 95.86 1277.83 C93.36 1278.08 93.36 1278.08 90.47 1279.13 C85.99 1280.43 81.66 1280.41 77.02 1280.39 C76.1 1280.39 75.17 1280.4 74.22 1280.4 C71.17 1280.41 68.13 1280.4 65.08 1280.4 C62.96 1280.4 60.83 1280.4 58.71 1280.4 C54.26 1280.4 49.81 1280.4 45.36 1280.39 C39.67 1280.38 33.98 1280.39 28.28 1280.4 C23.9 1280.4 19.51 1280.4 15.12 1280.4 C13.02 1280.4 10.92 1280.4 8.82 1280.4 C5.89 1280.41 2.95 1280.4 0.02 1280.39 C-0.85 1280.39 -1.71 1280.4 -2.59 1280.4 C-7.62 1280.37 -11.7 1279.69 -16.48 1278.13 C-18.97 1277.81 -18.97 1277.81 -21.33 1277.79 C-22.18 1277.76 -23.03 1277.73 -23.91 1277.7 C-25.67 1277.65 -27.43 1277.61 -29.19 1277.56 C-34.05 1277.39 -37.85 1276.73 -42.48 1275.13 C-45.91 1274.83 -49.3 1274.67 -52.73 1274.56 C-56.53 1274.4 -59.17 1273.96 -62.48 1272.13 C-64.45 1272.13 -66.42 1272.13 -68.38 1272.25 C-70.48 1272.13 -70.48 1272.13 -72.89 1271.16 C-76.52 1269.72 -79.99 1269.69 -83.86 1269.47 C-86.52 1269.12 -88.13 1268.36 -90.48 1267.13 C-91.49 1267.13 -92.5 1267.13 -93.54 1267.13 C-96.48 1267.13 -96.48 1267.13 -99.48 1265.13 C-101.89 1264.75 -101.89 1264.75 -104.48 1264.63 C-108.15 1264.41 -109.31 1264.24 -112.48 1262.13 C-114.73 1261.71 -114.73 1261.71 -117.11 1261.57 C-121.38 1261.23 -121.38 1261.23 -122.48 1260.13 C-123.85 1259.78 -125.22 1259.48 -126.61 1259.19 C-137.82 1256.79 -137.82 1256.79 -139.48 1255.13 C-141.52 1254.68 -143.56 1254.23 -145.6 1253.8 C-153.05 1252.07 -160.39 1249.99 -167.48 1247.13 C-170.04 1246.35 -172.6 1245.63 -175.18 1244.91 C-177.48 1244.13 -177.48 1244.13 -180.48 1242.13 C-182.47 1241.74 -184.47 1241.4 -186.48 1241.13 C-186.48 1240.47 -186.48 1239.81 -186.48 1239.13 C-187.16 1239.01 -187.84 1238.88 -188.54 1238.75 C-191.91 1238.04 -195.18 1237.1 -198.48 1236.13 C-198.48 1235.47 -198.48 1234.81 -198.48 1234.13 C-199.14 1234.19 -199.8 1234.25 -200.48 1234.32 C-207.98 1233.85 -214.93 1229.53 -221.48 1226.13 C-221.48 1225.47 -221.48 1224.81 -221.48 1224.13 C-222.72 1224.01 -223.96 1223.88 -225.23 1223.75 C-228.36 1223.37 -230.77 1222.82 -233.48 1221.13 C-233.48 1220.47 -233.48 1219.81 -233.48 1219.13 C-234.2 1219.01 -234.92 1218.88 -235.67 1218.75 C-238.44 1218.14 -240.88 1217.24 -243.48 1216.13 C-243.48 1215.47 -243.48 1214.81 -243.48 1214.13 C-244.2 1214.01 -244.92 1213.88 -245.67 1213.75 C-248.44 1213.14 -250.88 1212.24 -253.48 1211.13 C-253.48 1210.47 -253.48 1209.81 -253.48 1209.13 C-254.2 1209.01 -254.92 1208.88 -255.67 1208.75 C-258.44 1208.14 -260.88 1207.24 -263.48 1206.13 C-263.48 1205.47 -263.48 1204.81 -263.48 1204.13 C-264.14 1204.07 -264.8 1204.01 -265.48 1203.94 C-268.93 1203.01 -271.27 1201.47 -274.24 1199.52 C-276.61 1198.05 -279.03 1196.84 -281.54 1195.63 C-285.29 1193.8 -288.56 1191.76 -291.89 1189.25 C-294.27 1187.57 -296.86 1186.38 -299.48 1185.13 C-302.64 1183.32 -305.71 1181.49 -308.48 1179.13 C-308.48 1178.47 -308.48 1177.81 -308.48 1177.13 C-309.24 1177.01 -310.01 1176.88 -310.79 1176.75 C-313.48 1176.13 -313.48 1176.13 -316.48 1174.13 C-316.48 1173.47 -316.48 1172.81 -316.48 1172.13 C-317.26 1172.05 -318.05 1171.96 -318.86 1171.88 C-320.15 1171.51 -320.15 1171.51 -321.48 1171.13 C-322.15 1169.8 -322.81 1168.46 -323.48 1167.13 C-325.14 1166.75 -326.8 1166.42 -328.48 1166.13 C-329.5 1165.15 -330.5 1164.15 -331.48 1163.13 C-332.93 1162.42 -332.93 1162.42 -334.42 1161.69 C-337.52 1160.11 -339.08 1158.6 -341.48 1156.13 C-344.1 1154.06 -346.79 1152.1 -349.48 1150.13 C-350.9 1149.07 -352.31 1148.01 -353.73 1146.94 C-354.35 1146.47 -354.98 1146.01 -355.62 1145.52 C-356.91 1144.56 -358.19 1143.59 -359.48 1142.63 C-360.77 1141.66 -362.07 1140.69 -363.37 1139.73 C-366.79 1137.21 -370.15 1134.65 -373.42 1131.94 C-373.98 1131.47 -374.55 1131.01 -375.13 1130.52 C-376.48 1129.13 -376.48 1129.13 -377.48 1126.13 C-378.14 1126.13 -378.8 1126.13 -379.48 1126.13 C-379.48 1125.47 -379.48 1124.81 -379.48 1124.13 C-380.47 1124.13 -381.46 1124.13 -382.48 1124.13 C-382.48 1123.47 -382.48 1122.81 -382.48 1122.13 C-383.07 1121.86 -383.66 1121.58 -384.27 1121.3 C-386.41 1120.17 -387.99 1118.98 -389.79 1117.38 C-390.33 1116.91 -390.86 1116.44 -391.41 1115.96 C-392.09 1115.35 -392.77 1114.75 -393.48 1114.13 C-393.96 1113.73 -394.43 1113.33 -394.93 1112.92 C-399.76 1108.87 -404.23 1104.53 -408.68 1100.06 C-409.44 1099.31 -410.19 1098.55 -410.97 1097.77 C-412.57 1096.18 -414.15 1094.59 -415.74 1093 C-418.17 1090.57 -420.6 1088.14 -423.03 1085.72 C-424.58 1084.17 -426.13 1082.61 -427.68 1081.06 C-428.4 1080.34 -429.13 1079.62 -429.87 1078.88 C-433.3 1075.44 -436.54 1072.01 -439.48 1068.13 C-440.18 1067.26 -440.88 1066.4 -441.61 1065.5 C-443.48 1063.13 -443.48 1063.13 -445.48 1060.13 C-446.14 1059.8 -446.8 1059.47 -447.48 1059.13 C-447.48 1058.47 -447.48 1057.81 -447.48 1057.13 C-448.14 1057.13 -448.8 1057.13 -449.48 1057.13 C-449.48 1056.14 -449.48 1055.15 -449.48 1054.13 C-450.14 1054.13 -450.8 1054.13 -451.48 1054.13 C-451.48 1053.47 -451.48 1052.81 -451.48 1052.13 C-452.47 1051.8 -453.46 1051.47 -454.48 1051.13 C-455.88 1049.18 -457.21 1047.17 -458.48 1045.13 C-460.37 1041.97 -460.37 1041.97 -463.48 1039.69 C-466.17 1037.39 -467.22 1036.28 -468.48 1033.13 C-470.4 1030.13 -470.4 1030.13 -472.61 1027.57 C-474.48 1025.13 -474.48 1025.13 -474.48 1023.13 C-475.14 1023.13 -475.8 1023.13 -476.48 1023.13 C-476.98 1021.64 -476.98 1021.64 -477.48 1020.13 C-478.41 1019.51 -478.41 1019.51 -479.36 1018.88 C-482.3 1016.46 -483.05 1013.61 -484.48 1010.13 C-485.28 1009.33 -485.28 1009.33 -486.11 1008.5 C-488.02 1006.59 -488.13 1004.76 -488.48 1002.13 C-489.47 1002.13 -490.46 1002.13 -491.48 1002.13 C-493.02 999.98 -493.02 999.98 -494.54 997.19 C-496.36 993.5 -496.36 993.5 -499.48 991.13 C-499.98 989.64 -499.98 989.64 -500.48 988.13 C-501.47 986.64 -501.47 986.64 -502.48 985.13 C-504.48 982.13 -504.48 982.13 -504.48 979.13 C-505.14 979.13 -505.8 979.13 -506.48 979.13 C-507.47 976.82 -508.46 974.51 -509.48 972.13 C-510.14 972.13 -510.8 972.13 -511.48 972.13 C-511.6 971.51 -511.73 970.89 -511.86 970.25 C-512.35 967.94 -512.35 967.94 -514.48 966.13 C-516.07 963.05 -517.55 959.92 -519.04 956.78 C-520.21 954.03 -520.21 954.03 -522.48 953.13 C-522.82 951.8 -523.15 950.46 -523.48 949.13 C-524.52 947.07 -525.61 945.03 -526.73 943 C-529.28 938.36 -531.75 933.7 -534.09 928.94 C-535.22 926.66 -536.37 924.39 -537.53 922.13 C-537.89 921.42 -538.26 920.71 -538.63 919.98 C-539.35 918.56 -540.07 917.16 -540.8 915.75 C-542.59 912.22 -543.96 909.11 -544.48 905.13 C-545.14 905.13 -545.8 905.13 -546.48 905.13 C-546.66 904.47 -546.84 903.8 -547.03 903.12 C-548.39 898.34 -549.76 894.32 -552.48 890.13 C-557.9 878.16 -557.9 878.16 -559.04 872.19 C-559.19 871.51 -559.33 870.83 -559.48 870.13 C-560.14 869.8 -560.8 869.47 -561.48 869.13 C-562.02 867.34 -562.02 867.34 -562.48 865.13 C-563.69 861.25 -564.97 857.4 -566.48 853.63 C-567.99 849.86 -569.21 845.99 -570.48 842.13 C-570.81 841.14 -571.14 840.15 -571.48 839.13 C-573.92 831.82 -573.92 831.82 -574.68 829.51 C-575.23 827.89 -575.78 826.27 -576.34 824.66 C-576.61 823.86 -576.89 823.07 -577.17 822.25 C-577.42 821.54 -577.67 820.82 -577.93 820.07 C-578.48 818.13 -578.48 818.13 -578.48 815.13 C-579.43 813.11 -580.43 811.1 -581.48 809.13 C-581.15 808.8 -580.82 808.47 -580.48 808.13 C-580.69 807.58 -580.89 807.04 -581.1 806.48 C-582.86 801.56 -583.87 797.1 -584.17 791.88 C-584.32 791.01 -584.32 791.01 -584.48 790.13 C-585.14 789.8 -585.8 789.47 -586.48 789.13 C-586.48 787.81 -586.48 786.49 -586.48 785.13 C-586.93 783.61 -587.43 782.11 -587.98 780.63 C-589.17 777.4 -589.48 775.7 -589.48 772.13 C-589.73 770.56 -590.03 769 -590.36 767.44 C-590.54 766.57 -590.72 765.7 -590.91 764.81 C-591.1 763.92 -591.28 763.04 -591.48 762.13 C-591.75 760.85 -591.75 760.85 -592.02 759.55 C-592.89 755.22 -592.89 755.22 -594.48 751.13 C-593.82 751.13 -593.16 751.13 -592.48 751.13 C-592.81 750.43 -593.14 749.73 -593.48 749 C-594.57 745.87 -594.63 743.42 -594.48 740.13 C-595.14 739.8 -595.8 739.47 -596.48 739.13 C-595.82 739.13 -595.16 739.13 -594.48 739.13 C-594.95 737.95 -595.43 736.78 -595.92 735.57 C-597.8 730 -597.95 724.53 -598.23 718.69 C-598.43 715.81 -598.79 713.39 -599.54 710.63 C-600.93 705.29 -600.58 699.86 -600.45 694.39 C-600.31 691.12 -600.31 691.12 -601.48 688.13 C-601.58 685.11 -601.63 682.11 -601.63 679.09 C-601.63 678.16 -601.63 677.24 -601.64 676.28 C-601.65 673.22 -601.65 670.15 -601.65 667.08 C-601.65 664.95 -601.65 662.82 -601.66 660.69 C-601.66 656.22 -601.67 651.74 -601.67 647.27 C-601.67 641.55 -601.68 635.82 -601.7 630.1 C-601.71 625.7 -601.71 621.29 -601.71 616.89 C-601.71 614.78 -601.71 612.67 -601.72 610.56 C-601.73 607.6 -601.73 604.64 -601.72 601.69 C-601.73 600.82 -601.73 599.95 -601.74 599.06 C-601.71 594.03 -601.1 589.9 -599.48 585.13 C-600.14 584.8 -600.8 584.47 -601.48 584.13 C-601.37 581.52 -601.24 578.92 -601.11 576.32 C-601.07 575.58 -601.04 574.84 -601.01 574.08 C-600.81 570.31 -600.62 568.33 -598.48 565.13 C-598.15 563.05 -598.15 563.05 -598.14 560.79 C-598.11 559.95 -598.08 559.12 -598.05 558.26 C-598.02 557.39 -598 556.52 -597.98 555.63 C-597.94 553.91 -597.89 552.19 -597.82 550.47 C-597.81 549.71 -597.79 548.95 -597.77 548.17 C-597.48 546.13 -597.48 546.13 -595.48 543.13 C-595.21 540.97 -595.03 538.8 -594.92 536.63 C-594.73 533.18 -594.57 530.41 -593.48 527.13 C-593.22 524.62 -593.04 522.12 -592.86 519.6 C-592.47 517.04 -591.64 515.42 -590.48 513.13 C-590.07 510.81 -590.07 510.81 -589.92 508.44 C-589.58 504.23 -589.58 504.23 -588.48 503.13 C-588.2 500.84 -588.03 498.56 -587.86 496.26 C-587.48 494.13 -587.48 494.13 -585.48 492.13 C-585.06 489.76 -585.06 489.76 -584.92 487.13 C-584.58 482.32 -584.58 482.32 -583.48 480.13 C-581.1 473.19 -579.6 466.13 -578.23 458.94 C-577.98 458.01 -577.73 457.08 -577.48 456.13 C-576.82 455.8 -576.16 455.47 -575.48 455.13 C-575.22 453.13 -574.96 451.13 -574.76 449.12 C-574.43 446.78 -573.64 445.17 -572.48 443.13 C-571.43 440.23 -570.54 437.47 -569.98 434.44 C-569.48 432.13 -569.48 432.13 -567.48 429.13 C-566.47 425.92 -565.6 422.76 -564.98 419.44 C-564.46 417.06 -563.62 415.27 -562.48 413.13 C-562.15 412.14 -561.82 411.15 -561.48 410.13 C-560.82 410.13 -560.16 410.13 -559.48 410.13 C-559.54 409.24 -559.6 408.36 -559.67 407.44 C-559.45 403.68 -558.47 402.27 -556.48 399.13 C-555.8 396.8 -555.13 394.47 -554.48 392.13 C-553.82 391.14 -553.16 390.15 -552.48 389.13 C-551.85 387.02 -551.85 387.02 -551.48 385.13 C-550.82 385.13 -550.16 385.13 -549.48 385.13 C-549.38 384.43 -549.27 383.73 -549.17 383 C-548.38 379.73 -547.01 377.13 -545.48 374.13 C-545.15 373.12 -544.82 372.11 -544.48 371.07 C-543.47 368.1 -542.12 365.79 -540.48 363.13 C-539.99 361.89 -539.99 361.89 -539.48 360.63 C-538.4 357.93 -536.98 355.62 -535.48 353.13 C-534.99 351.89 -534.99 351.89 -534.48 350.63 C-533.4 347.93 -531.98 345.62 -530.48 343.13 C-529.81 341.47 -529.14 339.8 -528.48 338.13 C-527.82 337.14 -527.16 336.15 -526.48 335.13 C-525.82 335.13 -525.16 335.13 -524.48 335.13 C-524.98 333.64 -524.98 333.64 -525.48 332.13 C-524.11 329.57 -524.11 329.57 -522.48 327.13 C-522.15 326.47 -521.82 325.81 -521.48 325.13 C-520.82 325.13 -520.16 325.13 -519.48 325.13 C-519.38 324.42 -519.28 323.72 -519.18 322.99 C-518.36 319.66 -517 317.26 -515.23 314.32 C-514.6 313.27 -513.97 312.23 -513.33 311.16 C-512.72 310.16 -512.11 309.16 -511.48 308.13 C-510.98 307.29 -510.49 306.44 -509.98 305.57 C-508.87 303.72 -507.68 301.92 -506.48 300.13 C-505.82 300.13 -505.16 300.13 -504.48 300.13 C-504.54 299.37 -504.6 298.6 -504.67 297.82 C-504.48 295.13 -504.48 295.13 -503.11 293.32 C-501.48 292.13 -501.48 292.13 -499.48 292.13 C-499.48 290.81 -499.48 289.49 -499.48 288.13 C-498.82 288.13 -498.16 288.13 -497.48 288.13 C-497.15 287.14 -496.82 286.15 -496.48 285.13 C-495.82 285.13 -495.16 285.13 -494.48 285.13 C-494.54 284.37 -494.6 283.6 -494.67 282.82 C-494.48 280.13 -494.48 280.13 -493.11 278.32 C-491.48 277.13 -491.48 277.13 -489.48 277.13 C-489.36 276.53 -489.23 275.93 -489.11 275.32 C-488.48 273.13 -488.48 273.13 -486.48 270.13 C-485.82 270.13 -485.16 270.13 -484.48 270.13 C-484.4 269.41 -484.32 268.69 -484.23 267.94 C-483.11 263.72 -480.51 261.16 -477.48 258.13 C-475.94 256.04 -474.42 253.93 -472.92 251.81 C-472.44 251.25 -471.97 250.7 -471.48 250.13 C-470.82 250.13 -470.16 250.13 -469.48 250.13 C-469.39 249.38 -469.31 248.64 -469.22 247.87 C-468.33 244.59 -467.18 243.5 -464.67 241.25 C-461.62 238.37 -459.71 235.88 -457.81 232.12 C-455.17 228.17 -451.47 225.03 -448.04 221.78 C-445.48 219.34 -445.48 219.34 -444.16 216.82 C-442.17 213.63 -439.74 211.11 -437.09 208.48 C-436.56 207.94 -436.02 207.4 -435.47 206.85 C-433.7 205.07 -431.92 203.3 -430.15 201.53 C-428.91 200.29 -427.67 199.05 -426.44 197.82 C-423.85 195.22 -421.25 192.63 -418.66 190.05 C-415.34 186.74 -412.03 183.42 -408.72 180.1 C-406.17 177.54 -403.61 174.99 -401.05 172.44 C-399.83 171.22 -398.61 169.99 -397.39 168.77 C-395.69 167.06 -393.97 165.35 -392.25 163.64 C-391.76 163.14 -391.26 162.64 -390.75 162.13 C-387.57 158.98 -384.23 156.55 -380.48 154.13 C-378.82 152.52 -377.19 150.88 -375.61 149.19 C-372.08 145.58 -368.77 142.83 -364.41 140.33 C-359.96 137.56 -356.22 133.73 -352.37 130.2 C-348.83 127 -346.03 124.73 -341.48 123.13 C-337.91 120.62 -337.91 120.62 -335.48 117.13 C-334.16 117.13 -332.84 117.13 -331.48 117.13 C-331.15 116.14 -330.82 115.15 -330.48 114.13 C-328.67 112.81 -328.67 112.81 -326.48 111.57 C-323.4 109.92 -323.4 109.92 -321.48 107.13 C-319.83 107.13 -318.18 107.13 -316.48 107.13 C-316.15 106.14 -315.82 105.15 -315.48 104.13 C-313.7 102.81 -313.7 102.81 -311.54 101.57 C-309.17 100.19 -307.43 99.08 -305.48 97.13 C-304.16 97.13 -302.84 97.13 -301.48 97.13 C-301.15 96.14 -300.82 95.15 -300.48 94.13 C-298.62 92.88 -298.62 92.88 -296.29 91.69 C-292.52 89.7 -289.01 87.53 -285.48 85.13 C-281.91 82.75 -280.91 82.13 -276.48 82.13 C-276.48 81.47 -276.48 80.81 -276.48 80.13 C-275.72 79.84 -274.95 79.55 -274.17 79.25 C-271.33 78.17 -271.33 78.17 -268.48 76.13 C-267.82 76.46 -267.16 76.79 -266.48 77.13 C-266.48 76.47 -266.48 75.81 -266.48 75.13 C-262.52 72.8 -258.75 70.82 -254.48 69.13 C-253.66 68.63 -252.83 68.14 -251.98 67.63 C-249.53 66.16 -247.13 65.19 -244.48 64.13 C-243.24 63.39 -243.24 63.39 -241.98 62.63 C-239.48 61.13 -239.48 61.13 -236.79 60.07 C-234.34 59.25 -234.34 59.25 -232.48 57.13 C-229.36 57 -229.36 57 -226.48 57.13 C-226.48 56.47 -226.48 55.81 -226.48 55.13 C-225.79 54.85 -225.09 54.58 -224.37 54.29 C-221.3 53.05 -218.23 51.78 -215.17 50.5 C-214.1 50.06 -213.03 49.61 -211.93 49.15 C-211.12 48.82 -210.31 48.48 -209.48 48.13 C-209.48 47.8 -209.48 47.47 -209.48 47.13 C-208.43 46.84 -208.43 46.84 -207.36 46.54 C-206.45 46.28 -205.54 46.02 -204.61 45.75 C-203.25 45.37 -203.25 45.37 -201.86 44.98 C-199.33 44.27 -199.33 44.27 -197.48 42.13 C-194.36 42 -194.36 42 -191.48 42.13 C-191.48 41.47 -191.48 40.81 -191.48 40.13 C-189.17 39.47 -186.86 38.81 -184.48 38.13 C-184.48 37.8 -184.48 37.47 -184.48 37.13 C-183.49 37.05 -182.5 36.96 -181.48 36.88 C-178.44 36.46 -176.18 35.58 -173.48 34.13 C-169.81 32.15 -166.62 31.72 -162.48 31.13 C-160.4 30.19 -158.42 29.13 -156.41 28.06 C-153.79 26.8 -151.36 26.33 -148.48 26.13 C-147.82 26.46 -147.16 26.79 -146.48 27.13 C-146.48 26.47 -146.48 25.81 -146.48 25.13 C-142.19 23.55 -138.06 22.06 -133.48 21.63 C-129.14 21.21 -122.67 20.32 -119.48 17.13 C-116.93 16.85 -114.39 16.68 -111.83 16.51 C-109.3 16.33 -109.3 16.33 -107.48 14.13 C-105.35 13.75 -105.35 13.75 -102.92 13.57 C-99.9 13.54 -99.9 13.54 -97.48 12.13 C-94.67 11.85 -91.86 11.68 -89.05 11.51 C-86.32 11.37 -86.32 11.37 -84.48 9.13 C-81.44 8.72 -81.44 8.72 -77.86 8.5 C-76.67 8.43 -75.48 8.35 -74.25 8.28 C-73.34 8.23 -72.42 8.18 -71.48 8.13 C-71.48 7.8 -71.48 7.47 -71.48 7.13 C-70.58 7.08 -69.67 7.03 -68.74 6.98 C-67.56 6.91 -66.38 6.83 -65.17 6.75 C-63.41 6.65 -63.41 6.65 -61.62 6.54 C-58.32 6.34 -58.32 6.34 -55.48 4.13 C-53.49 3.81 -53.49 3.81 -51.25 3.72 C-50.45 3.68 -49.64 3.64 -48.82 3.6 C-47.98 3.57 -47.15 3.54 -46.29 3.5 C-45.45 3.47 -44.6 3.43 -43.73 3.39 C-41.65 3.29 -39.56 3.21 -37.48 3.13 C-37.48 2.8 -37.48 2.47 -37.48 2.13 C-36.88 2.1 -36.28 2.08 -35.66 2.05 C-32.91 1.94 -30.17 1.81 -27.42 1.69 C-26.47 1.65 -25.53 1.61 -24.56 1.57 C-23.64 1.53 -22.71 1.49 -21.76 1.45 C-20.91 1.41 -20.07 1.37 -19.2 1.33 C-16.41 1.16 -16.41 1.16 -13.4 0.62 C-8.9 0.06 -4.53 -0.01 0 0 Z M530.52 231.13 C531.52 233.13 531.52 233.13 531.52 233.13 Z M545.52 1026.13 C546.52 1028.13 546.52 1028.13 546.52 1028.13 Z M530.52 1044.13 C530.85 1045.12 531.18 1046.11 531.52 1047.13 C532.18 1046.8 532.84 1046.47 533.52 1046.13 C533.52 1045.47 533.52 1044.81 533.52 1044.13 C532.53 1044.13 531.54 1044.13 530.52 1044.13 Z M528.52 1047.13 C528.85 1047.79 529.18 1048.45 529.52 1049.13 C529.85 1048.47 530.18 1047.81 530.52 1047.13 C529.86 1047.13 529.2 1047.13 528.52 1047.13 Z M514.52 1064.13 C515.52 1066.13 515.52 1066.13 515.52 1066.13 Z " fill="#20526A" transform="translate(601.480224609375,-0.12939453125)"/>
<path d="M0 0 C3.87 -0.1 6.35 0.24 9.71 2.11 C9.07 2.44 8.42 2.76 7.76 3.1 C4.78 4.62 1.81 6.15 -1.16 7.67 C-2.18 8.19 -3.19 8.7 -4.23 9.23 C-10.2 12.31 -15.72 15.64 -21.16 19.58 C-23.55 21.3 -26.02 22.84 -28.54 24.36 C-39.31 31.16 -48.95 39.49 -58.29 48.11 C-60.06 49.7 -61.83 51.28 -63.6 52.86 C-66.93 55.86 -70.16 58.9 -73.29 62.11 C-73.82 62.63 -74.35 63.15 -74.9 63.69 C-78.62 67.35 -82.14 71.13 -85.54 75.09 C-86.68 76.41 -87.84 77.72 -89 79.01 C-93.87 84.41 -98.07 90.19 -102.29 96.11 C-103.1 97.22 -103.92 98.33 -104.74 99.44 C-109.76 106.28 -114.28 113.22 -118.38 120.66 C-119.59 122.86 -120.85 125.04 -122.14 127.19 C-147.1 168.9 -161.53 219.5 -162.29 268.11 C-162.3 269.01 -162.32 269.91 -162.34 270.84 C-162.43 277.6 -162.39 284.35 -162.29 291.11 C-162.28 291.89 -162.28 292.68 -162.27 293.48 C-161.63 342.84 -144.86 396.64 -118.29 438.11 C-117.04 440.22 -115.79 442.32 -114.54 444.42 C-106.32 457.69 -97.07 469.84 -86.29 481.11 C-85.07 482.48 -83.86 483.85 -82.66 485.24 C-82.12 485.86 -81.58 486.48 -81.03 487.11 C-79.73 488.6 -78.44 490.09 -77.15 491.58 C-73.12 496.13 -69.07 500.38 -64.41 504.29 C-62.91 505.58 -61.45 506.91 -60.01 508.27 C-52.06 515.8 -43.37 522.17 -34.48 528.54 C-32.67 529.84 -30.88 531.15 -29.09 532.48 C4.4 556.69 43.96 572.67 84.34 580.86 C85.71 581.14 85.71 581.14 87.11 581.43 C90.3 582.04 93.5 582.58 96.71 583.11 C97.45 583.24 98.2 583.36 98.96 583.49 C114.62 586.09 130.04 586.67 145.9 586.61 C147.12 586.61 148.35 586.61 149.61 586.61 C170.04 586.54 189.7 585.28 209.71 581.11 C210.93 580.86 212.16 580.61 213.42 580.35 C244.16 573.8 274.93 562.68 301.71 546.11 C303.16 545.25 304.61 544.39 306.06 543.54 C315.79 537.75 324.94 531.49 333.87 524.53 C335.79 523.05 337.75 521.62 339.7 520.19 C343.81 517.12 347.51 513.71 351.21 510.17 C358.93 502.86 358.93 502.86 362.77 499.67 C374.09 489.88 383.63 477.95 392.71 466.11 C393.17 465.52 393.63 464.93 394.1 464.32 C405.22 449.94 414.36 434.23 422.71 418.11 C423.7 418.44 424.69 418.77 425.71 419.11 C425.55 419.82 425.39 420.54 425.23 421.27 C424.72 424.07 424.52 426.7 424.42 429.54 C421.98 482.12 407.89 534.59 384.04 581.49 C382.82 583.9 381.63 586.32 380.46 588.75 C376.37 597.2 371.75 605.19 366.71 613.11 C365.88 614.46 365.05 615.81 364.23 617.16 C360.33 623.52 356.46 629.73 351.74 635.52 C350.01 637.72 348.39 639.95 346.78 642.23 C340.25 651.48 333.53 659.93 325.71 668.11 C324.6 669.37 323.49 670.64 322.4 671.92 C307.37 689.21 307.37 689.21 298.89 696.25 C296.43 698.35 294.08 700.55 291.73 702.76 C279.81 713.97 267.06 723.67 253.71 733.11 C253 733.61 252.29 734.12 251.56 734.64 C243.6 740.28 235.58 745.5 227.04 750.22 C223.85 752.03 220.79 753.98 217.71 755.99 C209.39 761.15 200.47 764.97 191.51 768.88 C188.92 770.02 186.35 771.18 183.78 772.36 C106.27 807.4 14.29 814.99 -126.13 777.53 C-135.36 773.98 -144.26 769.81 -153.04 765.27 C-155.08 764.22 -157.13 763.21 -159.19 762.22 C-168.54 757.71 -177.42 752.48 -186.29 747.11 C-186.97 746.7 -187.65 746.3 -188.35 745.88 C-197.44 740.42 -206 734.5 -214.41 728.04 C-217.44 725.73 -220.53 723.53 -223.68 721.37 C-231.37 716.06 -238.07 709.97 -244.81 703.51 C-246.64 701.78 -248.51 700.12 -250.41 698.49 C-260.34 689.87 -269.54 680.92 -278.29 671.11 C-278.92 670.4 -279.56 669.7 -280.21 668.97 C-281.92 667.03 -283.61 665.07 -285.29 663.11 C-286.12 662.16 -286.95 661.21 -287.81 660.23 C-293.99 653.09 -299.65 645.71 -305.02 637.95 C-306.31 636.08 -307.62 634.23 -308.94 632.37 C-351.07 572.6 -379.77 495.98 -380.29 422.11 C-380.3 420.71 -380.32 419.3 -380.33 417.89 C-380.38 412.95 -380.4 408 -380.41 403.05 C-380.42 402.25 -380.42 401.46 -380.42 400.64 C-380.47 382.4 -379.59 364.47 -376.85 346.42 C-376.72 345.58 -376.6 344.73 -376.46 343.86 C-370.29 303.6 -358.36 265.46 -340.98 228.67 C-340.42 227.48 -340.42 227.48 -339.84 226.27 C-335.19 216.48 -330.1 207.27 -324.29 198.11 C-323.29 196.42 -322.29 194.73 -321.31 193.03 C-315.37 182.86 -309.03 173.34 -301.79 164.06 C-300.26 162.08 -298.79 160.07 -297.32 158.06 C-291.02 149.4 -284.27 141.51 -276.86 133.79 C-275.19 132 -273.59 130.16 -271.99 128.3 C-267.82 123.5 -263.36 119.03 -258.85 114.55 C-258.04 113.74 -257.24 112.93 -256.4 112.09 C-252.07 107.76 -247.66 103.59 -243.01 99.6 C-240.89 97.77 -238.88 95.84 -236.85 93.92 C-231.21 88.83 -225.07 84.59 -218.83 80.28 C-215.84 78.21 -212.89 76.09 -209.97 73.91 C-199.35 66.02 -188.33 59.17 -176.86 52.6 C-174.25 51.09 -171.68 49.52 -169.11 47.94 C-165.07 45.51 -161.02 43.52 -156.66 41.74 C-151.83 39.7 -147.12 37.56 -142.48 35.13 C-133.54 30.45 -124.36 27.13 -114.79 23.96 C-112.44 23.16 -110.12 22.31 -107.8 21.44 C-73.45 8.56 -36.56 1.77 0 0 Z " fill="#F9D57F" transform="translate(612.28955078125,233.88916015625)"/>
<path d="M0 0 C0.66 0 1.32 0 2 0 C2.68 4.57 3.24 9.12 3.69 13.72 C3.83 15.11 3.97 16.49 4.1 17.88 C4.18 18.63 4.25 19.37 4.33 20.14 C5.79 34.83 7.38 49.5 9.04 64.16 C9.18 65.35 9.18 65.35 9.32 66.57 C10.23 74.65 11.15 82.74 12.09 90.83 C12.44 93.9 12.79 96.98 13.14 100.06 C13.31 101.51 13.47 102.96 13.64 104.4 C13.87 106.41 14.1 108.41 14.33 110.42 C14.52 112.12 14.52 112.12 14.72 113.85 C14.99 116.92 15.05 119.92 15 123 C16.44 123.16 16.44 123.16 17.92 123.31 C27.16 124.31 36.41 125.31 45.65 126.31 C50.4 126.83 55.15 127.34 59.9 127.85 C84.28 130.48 108.64 133.18 133 136 C133 136.66 133 137.32 133 138 C134.98 138 136.96 138 139 138 C139 138.33 139 138.66 139 139 C138.4 139.07 137.79 139.13 137.17 139.2 C122.48 140.78 107.79 142.38 93.1 143.98 C86 144.76 78.9 145.53 71.79 146.29 C65.6 146.96 59.41 147.64 53.22 148.31 C49.94 148.67 46.66 149.03 43.38 149.38 C39.72 149.77 36.06 150.18 32.4 150.58 C31.31 150.69 30.23 150.81 29.11 150.93 C27.61 151.09 27.61 151.09 26.08 151.27 C25.22 151.36 24.35 151.45 23.46 151.55 C20.78 152.04 18.49 152.91 16 154 C13.34 175.64 10.78 197.28 8.34 218.95 C7.9 222.84 7.45 226.73 7 230.62 C6.65 233.7 6.3 236.78 5.96 239.86 C5.79 241.3 5.63 242.73 5.47 244.17 C4.45 253 3.73 261.79 3.35 270.67 C3.03 273.69 2.59 275.46 1 278 C-0.95 272.04 -1.67 266.22 -2.3 260 C-2.47 258.37 -2.47 258.37 -2.64 256.71 C-3.02 253.14 -3.38 249.57 -3.75 246 C-4.01 243.51 -4.27 241.02 -4.53 238.54 C-4.94 234.66 -5.35 230.79 -5.75 226.91 C-7.1 213.98 -8.5 201.05 -9.92 188.12 C-10.31 184.55 -10.69 180.99 -11.08 177.42 C-11.32 175.23 -11.56 173.04 -11.8 170.84 C-11.91 169.86 -12.01 168.88 -12.13 167.86 C-12.7 162.57 -13.32 157.28 -14 152 C-15.19 151.89 -16.39 151.78 -17.62 151.66 C-32.69 150.25 -47.75 148.71 -62.81 147.12 C-64.69 146.93 -64.69 146.93 -66.6 146.73 C-82.55 145.05 -98.48 143.32 -114.37 141.21 C-121.9 140.21 -129.42 139.51 -137 139 C-133.77 137.15 -130.96 136.56 -127.28 136.1 C-126.11 135.95 -124.94 135.8 -123.73 135.64 C-122.45 135.49 -121.16 135.33 -119.84 135.17 C-118.46 135 -117.09 134.83 -115.72 134.66 C-99.15 132.6 -82.56 130.72 -65.98 128.85 C-61.46 128.34 -56.94 127.83 -52.43 127.31 C-48.89 126.91 -45.36 126.51 -41.82 126.11 C-40.15 125.93 -38.49 125.74 -36.82 125.54 C-21.01 123.73 -21.01 123.73 -13 124 C-12.95 123.01 -12.91 122.02 -12.86 120.99 C-12.28 109.52 -11.12 98.16 -9.79 86.76 C-9.57 84.85 -9.35 82.95 -9.13 81.05 C-8.56 76.08 -7.99 71.11 -7.41 66.15 C-6.72 60.15 -6.03 54.15 -5.34 48.16 C-4.8 43.48 -4.27 38.81 -3.73 34.13 C-2.41 22.76 -1.18 11.39 0 0 Z " fill="#FAFDFF" transform="translate(902,231)"/>
<path d="M0 0 C0.33 0 0.66 0 1 0 C1.04 0.65 1.08 1.3 1.13 1.97 C2.31 19.72 3.99 37.38 6.03 55.04 C6.43 58.51 6.82 61.98 7.2 65.46 C7.57 68.81 7.96 72.16 8.34 75.51 C8.55 77.37 8.55 77.37 8.76 79.28 C8.89 80.41 9.02 81.55 9.16 82.72 C9.28 83.72 9.39 84.72 9.51 85.75 C9.67 86.49 9.83 87.23 10 88 C13.08 89.54 16.4 89.56 19.78 89.89 C20.59 89.98 21.39 90.06 22.22 90.14 C23.96 90.32 25.71 90.5 27.46 90.68 C30.23 90.96 32.99 91.25 35.76 91.54 C43.62 92.36 51.48 93.18 59.35 93.98 C64.15 94.47 68.96 94.97 73.77 95.48 C75.6 95.68 77.43 95.86 79.27 96.05 C81.83 96.3 84.4 96.57 86.96 96.85 C87.72 96.92 88.48 96.99 89.26 97.07 C93.32 97.52 96 98.14 99 101 C98.11 101.06 98.11 101.06 97.21 101.13 C79.48 102.4 61.83 104.3 44.18 106.38 C39.34 106.95 34.51 107.52 29.67 108.08 C27.11 108.38 24.56 108.68 22 108.98 C20.29 109.18 20.29 109.18 18.54 109.39 C17.04 109.57 17.04 109.57 15.51 109.75 C13 110 13 110 10 110 C8.97 119.37 7.94 128.74 6.92 138.12 C6.45 142.47 5.97 146.82 5.49 151.18 C5.03 155.39 4.57 159.61 4.11 163.82 C3.94 165.42 3.76 167.01 3.59 168.6 C2.43 179.06 1.56 189.5 1 200 C0.67 200 0.34 200 0 200 C-2.76 190.45 -3.99 180.92 -5.01 171.07 C-5.18 169.47 -5.35 167.86 -5.53 166.25 C-5.98 162.07 -6.42 157.88 -6.86 153.69 C-7.48 147.77 -8.11 141.85 -8.75 135.93 C-9.08 132.79 -9.41 129.65 -9.74 126.5 C-9.9 125.07 -10.05 123.63 -10.2 122.19 C-10.4 120.32 -10.4 120.32 -10.6 118.41 C-10.97 115.25 -11.45 112.13 -12 109 C-12.84 109.03 -12.84 109.03 -13.7 109.05 C-21.21 109.18 -28.52 108.4 -35.98 107.5 C-37.31 107.35 -38.65 107.19 -39.99 107.04 C-44.2 106.55 -48.41 106.06 -52.62 105.56 C-58.16 104.91 -63.69 104.27 -69.23 103.63 C-69.89 103.55 -70.55 103.48 -71.23 103.4 C-80.81 102.3 -90.36 101.38 -100 101 C-100 100.67 -100 100.34 -100 100 C-98.02 100 -96.04 100 -94 100 C-94 99.34 -94 98.68 -94 98 C-92.46 97.84 -92.46 97.84 -90.89 97.67 C-81.25 96.65 -71.62 95.62 -61.98 94.58 C-57.02 94.05 -52.07 93.52 -47.11 93 C-42.33 92.49 -37.55 91.98 -32.77 91.46 C-30.95 91.26 -29.12 91.07 -27.29 90.88 C-24.74 90.61 -22.19 90.33 -19.64 90.05 C-18.5 89.94 -18.5 89.94 -17.33 89.82 C-15.54 89.62 -13.77 89.32 -12 89 C-10.81 86.63 -10.66 84.76 -10.38 82.12 C-10.27 81.1 -10.16 80.08 -10.05 79.03 C-9.93 77.91 -9.82 76.8 -9.7 75.65 C-9.57 74.49 -9.45 73.34 -9.32 72.14 C-8.92 68.41 -8.52 64.67 -8.12 60.94 C-6.6 46.66 -5.08 32.39 -3.43 18.13 C-3.32 17.11 -3.2 16.09 -3.08 15.03 C-2.47 9.82 -1.62 4.99 0 0 Z " fill="#F9FCFE" transform="translate(291,916)"/>
<path d="M0 0 C2.17 0.95 3.45 1.96 5.13 3.63 C5.7 4.19 6.26 4.75 6.85 5.33 C7.42 5.92 8 6.51 8.6 7.11 C9.18 7.69 9.77 8.26 10.37 8.85 C10.93 9.42 11.49 9.98 12.07 10.57 C12.58 11.08 13.09 11.59 13.61 12.12 C14.97 13.86 14.97 13.86 16.97 18.86 C11.69 24.14 6.41 29.42 0.97 34.86 C-4.57 32.65 -7.29 30.12 -11.4 25.99 C-12.38 25.05 -12.38 25.05 -13.39 24.09 C-14.3 23.18 -14.3 23.18 -15.24 22.25 C-15.8 21.69 -16.36 21.14 -16.94 20.57 C-18.03 18.86 -18.03 18.86 -17.91 16.88 C-16.17 12.88 -12.77 10.09 -9.72 7.05 C-9.04 6.34 -8.36 5.64 -7.66 4.91 C-7 4.25 -6.35 3.59 -5.67 2.91 C-5.07 2.3 -4.46 1.69 -3.84 1.06 C-2.03 -0.14 -2.03 -0.14 0 0 Z " fill="#FAFDFF" transform="translate(307.029541015625,240.136962890625)"/>
<path d="M0 0 C3.19 2.01 5.74 4.58 8.38 7.24 C8.92 7.76 9.46 8.28 10.01 8.82 C10.53 9.33 11.05 9.85 11.58 10.38 C12.04 10.85 12.51 11.31 12.99 11.79 C14.26 13.43 14.26 13.43 16.26 18.43 C10.98 23.71 5.7 28.99 0.26 34.43 C-5.29 32.21 -8 29.68 -12.12 25.55 C-13.1 24.61 -13.1 24.61 -14.1 23.66 C-15.02 22.74 -15.02 22.74 -15.95 21.81 C-16.51 21.26 -17.07 20.7 -17.65 20.13 C-18.74 18.43 -18.74 18.43 -18.61 16.43 C-17.6 14.1 -16.46 12.78 -14.65 11.01 C-13.72 10.09 -13.72 10.09 -12.78 9.15 C-12.13 8.52 -11.47 7.89 -10.8 7.24 C-10.16 6.6 -9.51 5.96 -8.85 5.29 C-2.59 -0.85 -2.59 -0.85 0 0 Z " fill="#FAFDFF" transform="translate(1138.7421875,706.57421875)"/>
<path d="M0 0 C2.86 1.3 4.94 2.68 7.16 4.9 C7.73 5.46 8.29 6.02 8.88 6.6 C9.45 7.19 10.03 7.77 10.62 8.38 C11.21 8.95 11.8 9.53 12.4 10.12 C12.96 10.69 13.52 11.25 14.1 11.84 C14.61 12.35 15.12 12.86 15.64 13.38 C17 15 17 15 19 19 C13.39 24.61 7.78 30.22 2 36 C-2.77 32.82 -6.44 29.95 -10.44 26 C-10.99 25.48 -11.54 24.96 -12.12 24.42 C-15.99 20.6 -15.99 20.6 -16.05 17.87 C-13.94 14.1 -10.94 11.13 -8 8 C-7.43 7.39 -6.86 6.78 -6.27 6.15 C-4.9 4.72 -3.45 3.35 -2 2 C-1.34 2 -0.68 2 0 2 C0 1.34 0 0.68 0 0 Z " fill="#FAFDFF" transform="translate(877,1048)"/>
<path d="M0 0 C4.33 4.33 8.67 8.67 13 13 C14.14 13.99 14.14 13.99 15.31 15 C15.87 15.66 16.42 16.32 17 17 C16.63 20.15 15.57 21.81 13.35 24.02 C12.55 24.81 12.55 24.81 11.74 25.62 C11.19 26.16 10.63 26.69 10.06 27.25 C9.51 27.8 8.96 28.36 8.39 28.93 C4.27 33 4.27 33 2 33 C2 33.66 2 34.32 2 35 C-2.04 34.49 -3.95 33.54 -6.77 30.62 C-7.76 29.61 -7.76 29.61 -8.77 28.58 C-9.45 27.87 -10.12 27.17 -10.81 26.44 C-11.51 25.73 -12.2 25.02 -12.91 24.28 C-14.62 22.53 -16.31 20.77 -18 19 C-16.65 15.99 -15.15 13.9 -12.81 11.58 C-12.2 10.97 -11.58 10.35 -10.95 9.72 C-10.3 9.09 -9.66 8.46 -9 7.81 C-8.36 7.17 -7.72 6.53 -7.05 5.87 C-2.28 1.14 -2.28 1.14 0 0 Z " fill="#FAFDFF" transform="translate(1060,478)"/>
<path d="M0 0 C14.85 12.32 14.85 12.32 18 19 C17.56 19.44 17.11 19.88 16.65 20.33 C14.64 22.32 12.63 24.32 10.62 26.31 C9.93 27 9.23 27.69 8.51 28.4 C7.84 29.07 7.17 29.74 6.48 30.43 C5.86 31.04 5.24 31.65 4.6 32.28 C2.81 34.11 2.81 34.11 1 37 C-5 31 -11 25 -17 19 C-15.53 14.05 -12.68 11.29 -9.06 7.81 C-8.52 7.28 -7.99 6.75 -7.43 6.2 C-5.05 3.87 -2.78 1.85 0 0 Z " fill="#FAFDFF" transform="translate(620,615)"/>
<path d="M0 0 C0.72 0.72 1.43 1.44 2.17 2.18 C3.99 4 5.83 5.81 7.68 7.61 C8.98 8.88 8.98 8.88 10.31 10.19 C11.2 11.05 12.08 11.91 12.99 12.79 C15 15 15 15 15 17 C15.66 17 16.32 17 17 17 C15.35 21.3 12.18 24.01 8.94 27.12 C5 30.7 5 30.7 2 35 C-4.04 34.2 -6.74 30.88 -10.88 26.69 C-11.58 26.01 -12.28 25.33 -13 24.63 C-13.99 23.65 -13.99 23.65 -14.99 22.64 C-15.59 22.04 -16.2 21.43 -16.82 20.82 C-18 19 -18 19 -17.83 16.94 C-16.51 13.87 -14.18 11.78 -11.81 9.5 C-11.34 9.03 -10.87 8.55 -10.39 8.07 C-7.15 4.88 -3.83 2.4 0 0 Z " fill="#FAFDFF" transform="translate(203,306)"/>
<path d="M0 0 C1.98 0 3.96 0 6 0 C6 0.33 6 0.66 6 1 C4.02 1 2.04 1 0 1 C0 0.67 0 0.34 0 0 Z " fill="#FAFDFF" transform="translate(741,1272)"/>
<path d="M0 0 C1.98 0 3.96 0 6 0 C6 0.33 6 0.66 6 1 C4.02 1 2.04 1 0 1 C0 0.67 0 0.34 0 0 Z " fill="#FAFDFF" transform="translate(533,1272)"/>
<path d="M0 0 C0.33 0 0.66 0 1 0 C1 1.98 1 3.96 1 6 C0.67 6 0.34 6 0 6 C0 4.02 0 2.04 0 0 Z " fill="#FAFDFF" transform="translate(1272,533)"/>
<path d="M0 0 C1.65 0 3.3 0 5 0 C5 0.33 5 0.66 5 1 C3.35 1 1.7 1 0 1 C0 0.67 0 0.34 0 0 Z " fill="#FAFDFF" transform="translate(721,1275)"/>
<path d="M0 0 C1.65 0 3.3 0 5 0 C5 0.33 5 0.66 5 1 C3.35 1 1.7 1 0 1 C0 0.67 0 0.34 0 0 Z " fill="#FAFDFF" transform="translate(554,1275)"/>
<path d="M0 0 C1.65 0 3.3 0 5 0 C5 0.33 5 0.66 5 1 C3.35 1 1.7 1 0 1 C0 0.67 0 0.34 0 0 Z " fill="#FAFDFF" transform="translate(769,1267)"/>
<path d="M0 0 C1.65 0 3.3 0 5 0 C5 0.33 5 0.66 5 1 C3.35 1 1.7 1 0 1 C0 0.67 0 0.34 0 0 Z " fill="#FAFDFF" transform="translate(506,1267)"/>
<path d="M0 0 C0.33 0 0.66 0 1 0 C1 1.65 1 3.3 1 5 C0.67 5 0.34 5 0 5 C0 3.35 0 1.7 0 0 Z " fill="#FAFDFF" transform="translate(1267,769)"/>
<path d="M0 0 C0.33 0 0.66 0 1 0 C1 1.65 1 3.3 1 5 C0.67 5 0.34 5 0 5 C0 3.35 0 1.7 0 0 Z " fill="#FAFDFF" transform="translate(1275,721)"/>
<path d="M0 0 C0.33 0 0.66 0 1 0 C1 1.65 1 3.3 1 5 C0.67 5 0.34 5 0 5 C0 3.35 0 1.7 0 0 Z " fill="#FAFDFF" transform="translate(1275,554)"/>
<path d="M0 0 C0.33 0 0.66 0 1 0 C1 1.65 1 3.3 1 5 C0.67 5 0.34 5 0 5 C0 3.35 0 1.7 0 0 Z " fill="#FAFDFF" transform="translate(1267,506)"/>
<path d="M0 0 C4 1 4 1 4 1 Z " fill="#FAFDFF" transform="translate(498,1265)"/>
<path d="M0 0 C4 1 4 1 4 1 Z " fill="#FAFDFF" transform="translate(791,1262)"/>
<path d="M0 0 C4 1 4 1 4 1 Z " fill="#FAFDFF" transform="translate(485,1262)"/>
<path d="M0 0 C1 4 1 4 1 4 Z " fill="#FAFDFF" transform="translate(1265,778)"/>
<path d="M0 0 C1 4 1 4 1 4 Z " fill="#FAFDFF" transform="translate(1270,753)"/>
<path d="M0 0 C1 4 1 4 1 4 Z " fill="#FAFDFF" transform="translate(1270,523)"/>
<path d="M0 0 C1 4 1 4 1 4 Z " fill="#FAFDFF" transform="translate(1265,498)"/>
<path d="M0 0 C1 4 1 4 1 4 Z " fill="#FAFDFF" transform="translate(1262,485)"/>
<path d="M0 0 C3 1 3 1 3 1 Z " fill="#FAFDFF" transform="translate(754,1270)"/>
<path d="M0 0 C3 1 3 1 3 1 Z " fill="#FAFDFF" transform="translate(523,1270)"/>
<path d="M0 0 C3 1 3 1 3 1 Z " fill="#FAFDFF" transform="translate(779,1265)"/>
<path d="M0 0 C3 1 3 1 3 1 Z " fill="#FAFDFF" transform="translate(466,1257)"/>
<path d="M0 0 C2 1 2 1 2 1 Z " fill="#FAFDFF" transform="translate(811,1257)"/>
<path d="M0 0 C2 1 2 1 2 1 Z " fill="#FAFDFF" transform="translate(460,1255)"/>
<path d="M0 0 C2 1 2 1 2 1 Z " fill="#FAFDFF" transform="translate(829,1252)"/>
<path d="M0 0 C2 1 2 1 2 1 Z " fill="#FAFDFF" transform="translate(449,1252)"/>
<path d="M0 0 C2 1 2 1 2 1 Z " fill="#FAFDFF" transform="translate(844,1247)"/>
<path d="M0 0 C2 1 2 1 2 1 Z " fill="#FAFDFF" transform="translate(434,1247)"/>
<path d="M0 0 C2 1 2 1 2 1 Z " fill="#FAFDFF" transform="translate(859,1242)"/>
<path d="M0 0 C2 1 2 1 2 1 Z " fill="#FAFDFF" transform="translate(419,1242)"/>
<path d="M0 0 C2 1 2 1 2 1 Z " fill="#FAFDFF" transform="translate(871,1237)"/>
<path d="M0 0 C2 1 2 1 2 1 Z " fill="#FAFDFF" transform="translate(407,1237)"/>
<path d="M0 0 C2 1 2 1 2 1 Z " fill="#FAFDFF" transform="translate(884,1232)"/>
<path d="M0 0 C2 1 2 1 2 1 Z " fill="#FAFDFF" transform="translate(906,1222)"/>
<path d="" fill="#FAFDFF" transform="translate(0,0)"/>
<path d="" fill="#FAFDFF" transform="translate(0,0)"/>
<path d="" fill="#FAFDFF" transform="translate(0,0)"/>
<path d="" fill="#FAFDFF" transform="translate(0,0)"/>
<path d="" fill="#FAFDFF" transform="translate(0,0)"/>
<path d="" fill="#FAFDFF" transform="translate(0,0)"/>
<path d="" fill="#FAFDFF" transform="translate(0,0)"/>
<path d="" fill="#FAFDFF" transform="translate(0,0)"/>
<path d="" fill="#FAFDFF" transform="translate(0,0)"/>
<path d="" fill="#FAFDFF" transform="translate(0,0)"/>
<path d="" fill="#FAFDFF" transform="translate(0,0)"/>
<path d="" fill="#FAFDFF" transform="translate(0,0)"/>
<path d="" fill="#FAFDFF" transform="translate(0,0)"/>
<path d="" fill="#FAFDFF" transform="translate(0,0)"/>
<path d="" fill="#FAFDFF" transform="translate(0,0)"/>
<path d="" fill="#FAFDFF" transform="translate(0,0)"/>
<path d="" fill="#FAFDFF" transform="translate(0,0)"/>
<path d="" fill="#FAFDFF" transform="translate(0,0)"/>
<path d="" fill="#FAFDFF" transform="translate(0,0)"/>
<path d="" fill="#20526A" transform="translate(0,0)"/>
<path d="" fill="#F9D57F" transform="translate(0,0)"/>
<path d="" fill="#20526A" transform="translate(0,0)"/>
<path d="" fill="#FAFDFF" transform="translate(0,0)"/>
<path d="" fill="#FAFDFF" transform="translate(0,0)"/>
<path d="" fill="#20526A" transform="translate(0,0)"/>
<path d="" fill="#F9D57F" transform="translate(0,0)"/>
<path d="" fill="#20526A" transform="translate(0,0)"/>
<path d="" fill="#FAFDFF" transform="translate(0,0)"/>
<path d="" fill="#20526A" transform="translate(0,0)"/>
<path d="" fill="#F9D57F" transform="translate(0,0)"/>
<path d="" fill="#FAFDFF" transform="translate(0,0)"/>
<path d="" fill="#FAFDFF" transform="translate(0,0)"/>
<path d="" fill="#FAFDFF" transform="translate(0,0)"/>
<path d="" fill="#20526A" transform="translate(0,0)"/>
<path d="" fill="#F9D57F" transform="translate(0,0)"/>
<path d="" fill="#20526A" transform="translate(0,0)"/>
<path d="" fill="#20526A" transform="translate(0,0)"/>
<path d="" fill="#F9D57F" transform="translate(0,0)"/>
<path d="" fill="#FAFDFF" transform="translate(0,0)"/>
<path d="" fill="#20526A" transform="translate(0,0)"/>
<path d="" fill="#20526A" transform="translate(0,0)"/>
<path d="" fill="#F9D57F" transform="translate(0,0)"/>
<path d="" fill="#FAFDFF" transform="translate(0,0)"/>
<path d="" fill="#FAFDFF" transform="translate(0,0)"/>
<path d="" fill="#FAFDFF" transform="translate(0,0)"/>
<path d="" fill="#FAFDFF" transform="translate(0,0)"/>
<path d="" fill="#20526A" transform="translate(0,0)"/>
<path d="" fill="#20526A" transform="translate(0,0)"/>
<path d="" fill="#20526A" transform="translate(0,0)"/>
<path d="" fill="#20526A" transform="translate(0,0)"/>
<path d="" fill="#FAFDFF" transform="translate(0,0)"/>
<path d="" fill="#20526A" transform="translate(0,0)"/>
<path d="" fill="#20526A" transform="translate(0,0)"/>
<path d="" fill="#20526A" transform="translate(0,0)"/>
<path d="" fill="#FAFDFF" transform="translate(0,0)"/>
<path d="" fill="#20526A" transform="translate(0,0)"/>
<path d="" fill="#FAFDFF" transform="translate(0,0)"/>
<path d="" fill="#FAFDFF" transform="translate(0,0)"/>
<path d="" fill="#FAFDFF" transform="translate(0,0)"/>
<path d="" fill="#FAFDFF" transform="translate(0,0)"/>
<path d="" fill="#20526A" transform="translate(0,0)"/>
<path d="" fill="#FAFDFF" transform="translate(0,0)"/>
<path d="" fill="#FAFDFF" transform="translate(0,0)"/>
<path d="" fill="#FAFDFF" transform="translate(0,0)"/>
<path d="" fill="#FAFDFF" transform="translate(0,0)"/>
<path d="" fill="#20526A" transform="translate(0,0)"/>
<path d="" fill="#FAFDFF" transform="translate(0,0)"/>
<path d="" fill="#20526A" transform="translate(0,0)"/>
<path d="" fill="#20526A" transform="translate(0,0)"/>
<path d="" fill="#20526A" transform="translate(0,0)"/>
<path d="" fill="#20526A" transform="translate(0,0)"/>
<path d="" fill="#20526A" transform="translate(0,0)"/>
<path d="" fill="#20526A" transform="translate(0,0)"/>
<path d="" fill="#FAFDFF" transform="translate(0,0)"/>
<path d="" fill="#FAFDFF" transform="translate(0,0)"/>
<path d="" fill="#FAFDFF" transform="translate(0,0)"/>
<path d="" fill="#FAFDFF" transform="translate(0,0)"/>
<path d="" fill="#FAFDFF" transform="translate(0,0)"/>
<path d="" fill="#FAFDFF" transform="translate(0,0)"/>
<path d="" fill="#FAFDFF" transform="translate(0,0)"/>
<path d="" fill="#20526A" transform="translate(0,0)"/>
<path d="" fill="#FAFDFF" transform="translate(0,0)"/>
<path d="" fill="#20526A" transform="translate(0,0)"/>
<path d="" fill="#20526A" transform="translate(0,0)"/>
<path d="" fill="#20526A" transform="translate(0,0)"/>
<path d="" fill="#20526A" transform="translate(0,0)"/>
<path d="" fill="#20526A" transform="translate(0,0)"/>
<path d="" fill="#20526A" transform="translate(0,0)"/>
<path d="" fill="#20526A" transform="translate(0,0)"/>
<path d="" fill="#20526A" transform="translate(0,0)"/>
<path d="" fill="#20526A" transform="translate(0,0)"/>
<path d="" fill="#20526A" transform="translate(0,0)"/>
<path d="" fill="#20526A" transform="translate(0,0)"/>
<path d="" fill="#20526A" transform="translate(0,0)"/>
<path d="" fill="#20526A" transform="translate(0,0)"/>
<path d="" fill="#20526A" transform="translate(0,0)"/>
<path d="" fill="#20526A" transform="translate(0,0)"/>
<path d="" fill="#20526A" transform="translate(0,0)"/>
<path d="" fill="#20526A" transform="translate(0,0)"/>
</svg>
