<!-- graduation-cap-solid-custom-fill.svg -->
<svg xmlns="http://www.w3.org/2000/svg" viewBox="0 0 24 24" class="custom-fill">
  <path d="M12 2C6.48 2 2 6.48 2 12s4.48 10 10 10 10-4.48 10-10S17.52 2 12 2zm-1.45 16.36c-1.69.97-3.78 1.17-5.47.45-.39-.11-.78-.23-1.17-.36-1.77-4.38-.4-8.42 3.37-9.94-1.35-.62-2.94-.44-4.23.36-.31.14-.6.3-.88.48l-.1.07c-.47.38-.95.79-1.43 1.19-.1.1-.19.21-.29.31-.09.09-.18.18-.27.27-.09.08-.18.17-.27.26-.09.08-.18.17-.27.26-.08.09-.16.18-.24.27-.08.09-.16.18-.24.27-.07.08-.14.17-.21.25-.22.24-.41.51-.56.8-.03.05-.06.1-.1.16-.05.07-.1.14-.15.21-.02.03-.05.06-.07.09-.08.12-.14.24-.19.37-.05.12-.09.24-.11.37-.06.34-.01.72.14 1.06.16.41.44.79.81 1.07.42.33.93.56 1.44.67.13.02.26.03.39.03.4 0 .79-.1 1.17-.29 1.25-.67 2.33-1.74 2.92-3.13.11.61.38 1.18.79 1.64 1.23 1.46 3.17 2.19 5.25 1.88 1.62-.22 3.13-1 4.17-2.23.38-.38.71-.8.98-1.25.31-.5.53-1.02.68-1.56.04-.14.07-.28.1-.42.04-.2.07-.39.09-.59.02-.26.03-.53.03-.79 0-2.44-1.97-4.41-4.41-4.41s-4.41 1.97-4.41 4.41c0 .09 0 .17.01.26.02.37.04.73.07 1.1.03.33.07.66.12.99.06.33.12.67.19 1.01.08.32.16.64.26.96.18.58.39 1.16.63 1.73.2.48.41.95.66 1.41.37.63.78 1.26 1.25 1.87 1.13 1.55 2.56 2.94 4.26 4.14.01.01.02.02.03.03.17.14.35.27.53.4-.05.11-.11.23-.16.34z"/>
</svg>